G04 #@! TF.GenerationSoftware,KiCad,Pcbnew,7.0.1*
G04 #@! TF.CreationDate,2023-05-08T23:10:09+02:00*
G04 #@! TF.ProjectId,rockobot,726f636b-6f62-46f7-942e-6b696361645f,V1*
G04 #@! TF.SameCoordinates,Original*
G04 #@! TF.FileFunction,Soldermask,Bot*
G04 #@! TF.FilePolarity,Negative*
%FSLAX46Y46*%
G04 Gerber Fmt 4.6, Leading zero omitted, Abs format (unit mm)*
G04 Created by KiCad (PCBNEW 7.0.1) date 2023-05-08 23:10:09*
%MOMM*%
%LPD*%
G01*
G04 APERTURE LIST*
G04 Aperture macros list*
%AMRoundRect*
0 Rectangle with rounded corners*
0 $1 Rounding radius*
0 $2 $3 $4 $5 $6 $7 $8 $9 X,Y pos of 4 corners*
0 Add a 4 corners polygon primitive as box body*
4,1,4,$2,$3,$4,$5,$6,$7,$8,$9,$2,$3,0*
0 Add four circle primitives for the rounded corners*
1,1,$1+$1,$2,$3*
1,1,$1+$1,$4,$5*
1,1,$1+$1,$6,$7*
1,1,$1+$1,$8,$9*
0 Add four rect primitives between the rounded corners*
20,1,$1+$1,$2,$3,$4,$5,0*
20,1,$1+$1,$4,$5,$6,$7,0*
20,1,$1+$1,$6,$7,$8,$9,0*
20,1,$1+$1,$8,$9,$2,$3,0*%
G04 Aperture macros list end*
%ADD10RoundRect,0.250000X-0.600000X-0.725000X0.600000X-0.725000X0.600000X0.725000X-0.600000X0.725000X0*%
%ADD11O,1.700000X1.950000*%
%ADD12R,1.700000X1.700000*%
%ADD13C,1.600000*%
%ADD14O,1.600000X1.600000*%
%ADD15RoundRect,0.250000X0.725000X-0.600000X0.725000X0.600000X-0.725000X0.600000X-0.725000X-0.600000X0*%
%ADD16O,1.950000X1.700000*%
%ADD17O,1.700000X1.700000*%
%ADD18RoundRect,1.500000X1.500000X-1.500000X1.500000X1.500000X-1.500000X1.500000X-1.500000X-1.500000X0*%
%ADD19C,6.000000*%
%ADD20R,1.600000X1.600000*%
%ADD21RoundRect,0.250000X-0.725000X0.600000X-0.725000X-0.600000X0.725000X-0.600000X0.725000X0.600000X0*%
G04 APERTURE END LIST*
D10*
X149472000Y-70866000D03*
D11*
X151972000Y-70866000D03*
X154472000Y-70866000D03*
X156972000Y-70866000D03*
D12*
X123698000Y-80772000D03*
D13*
X171831000Y-107696000D03*
D14*
X156591000Y-107696000D03*
D13*
X171831000Y-103378000D03*
D14*
X156591000Y-103378000D03*
D10*
X120008000Y-137922000D03*
D11*
X122508000Y-137922000D03*
X125008000Y-137922000D03*
X127508000Y-137922000D03*
D13*
X171831000Y-116239000D03*
D14*
X156591000Y-116239000D03*
D15*
X118110000Y-109180000D03*
D16*
X118110000Y-106680000D03*
X118110000Y-104180000D03*
X118110000Y-101680000D03*
D10*
X130108000Y-70849000D03*
D11*
X132608000Y-70849000D03*
X135108000Y-70849000D03*
X137608000Y-70849000D03*
D12*
X129988000Y-77199000D03*
D17*
X132528000Y-77199000D03*
X135068000Y-77199000D03*
X137608000Y-77199000D03*
D12*
X107823000Y-94742000D03*
X119888000Y-132842000D03*
D17*
X122428000Y-132842000D03*
X124968000Y-132842000D03*
X127508000Y-132842000D03*
D12*
X176513000Y-101600000D03*
D17*
X176513000Y-104140000D03*
X176513000Y-106680000D03*
X176513000Y-109220000D03*
D13*
X171831000Y-120599000D03*
D14*
X156591000Y-120599000D03*
D12*
X123698000Y-70485000D03*
X123698000Y-84582000D03*
D13*
X171831000Y-94742000D03*
D14*
X156591000Y-94742000D03*
D10*
X159806000Y-138176000D03*
D11*
X162306000Y-138176000D03*
X164806000Y-138176000D03*
X167306000Y-138176000D03*
D12*
X124460000Y-109220000D03*
D17*
X124460000Y-106680000D03*
X124460000Y-104140000D03*
X124460000Y-101600000D03*
D12*
X107696000Y-84582000D03*
D18*
X108458000Y-109134000D03*
D19*
X108458000Y-101934000D03*
D12*
X123571000Y-94869000D03*
X143510000Y-72390000D03*
D17*
X143510000Y-69850000D03*
D12*
X107823000Y-70485000D03*
D20*
X135900000Y-86868000D03*
D14*
X135900000Y-89408000D03*
X135900000Y-91948000D03*
X135900000Y-94488000D03*
X135900000Y-97028000D03*
X135900000Y-99568000D03*
X135900000Y-102108000D03*
X135900000Y-104648000D03*
X135900000Y-107188000D03*
X135900000Y-109728000D03*
X135900000Y-112268000D03*
X135900000Y-114808000D03*
X135900000Y-117348000D03*
X135900000Y-119888000D03*
X135900000Y-122428000D03*
X151140000Y-122428000D03*
X151140000Y-119888000D03*
X151140000Y-117348000D03*
X151140000Y-114808000D03*
X151140000Y-112268000D03*
X151140000Y-109728000D03*
X151140000Y-107188000D03*
X151140000Y-104648000D03*
X151140000Y-102108000D03*
X151140000Y-99568000D03*
X151140000Y-97028000D03*
X151140000Y-94488000D03*
X151140000Y-91948000D03*
X151140000Y-89408000D03*
X151140000Y-86868000D03*
D13*
X171831000Y-99060000D03*
D14*
X156591000Y-99060000D03*
D12*
X125984000Y-145796000D03*
D17*
X123444000Y-145796000D03*
D12*
X155702000Y-145542000D03*
D17*
X158242000Y-145542000D03*
X160782000Y-145542000D03*
X163322000Y-145542000D03*
X165862000Y-145542000D03*
X168402000Y-145542000D03*
D12*
X149479000Y-77089000D03*
D17*
X152019000Y-77089000D03*
X154559000Y-77089000D03*
X157099000Y-77089000D03*
D13*
X171831000Y-90424000D03*
D14*
X156591000Y-90424000D03*
D12*
X159766000Y-133096000D03*
D17*
X162306000Y-133096000D03*
X164846000Y-133096000D03*
X167386000Y-133096000D03*
D13*
X171831000Y-112014000D03*
D14*
X156591000Y-112014000D03*
D21*
X182753000Y-101680000D03*
D16*
X182753000Y-104180000D03*
X182753000Y-106680000D03*
X182753000Y-109180000D03*
D12*
X107823000Y-80772000D03*
M02*
