M48
; DRILL file {KiCad 7.0.1} date Mon May  8 23:11:15 2023
; FORMAT={-:-/ absolute / metric / decimal}
; #@! TF.CreationDate,2023-05-08T23:11:15+02:00
; #@! TF.GenerationSoftware,Kicad,Pcbnew,7.0.1
; #@! TF.FileFunction,Plated,1,2,PTH
FMAT,2
METRIC
; #@! TA.AperFunction,Plated,PTH,ComponentDrill
T1C0.800
; #@! TA.AperFunction,Plated,PTH,ComponentDrill
T2C0.950
; #@! TA.AperFunction,Plated,PTH,ComponentDrill
T3C1.000
; #@! TA.AperFunction,Plated,PTH,ComponentDrill
T4C4.500
%
G90
G05
T1
X156.591Y-90.424
X156.591Y-94.742
X156.591Y-99.06
X156.591Y-103.378
X156.591Y-107.696
X156.591Y-112.014
X156.591Y-116.239
X156.591Y-120.599
X171.831Y-90.424
X171.831Y-94.742
X171.831Y-99.06
X171.831Y-103.378
X171.831Y-107.696
X171.831Y-112.014
X171.831Y-116.239
X171.831Y-120.599
T2
X118.11Y-101.68
X118.11Y-104.18
X118.11Y-106.68
X118.11Y-109.18
X120.008Y-137.922
X122.508Y-137.922
X125.008Y-137.922
X127.508Y-137.922
X130.108Y-70.849
X132.608Y-70.849
X135.108Y-70.849
X137.608Y-70.849
X149.472Y-70.866
X151.972Y-70.866
X154.472Y-70.866
X156.972Y-70.866
X159.806Y-138.176
X162.306Y-138.176
X164.806Y-138.176
X167.306Y-138.176
X182.753Y-101.68
X182.753Y-104.18
X182.753Y-106.68
X182.753Y-109.18
T3
X107.696Y-84.582
X107.823Y-70.485
X107.823Y-80.772
X107.823Y-94.742
X119.888Y-132.842
X122.428Y-132.842
X123.444Y-145.796
X123.571Y-94.869
X123.698Y-70.485
X123.698Y-80.772
X123.698Y-84.582
X124.46Y-101.6
X124.46Y-104.14
X124.46Y-106.68
X124.46Y-109.22
X124.968Y-132.842
X125.984Y-145.796
X127.508Y-132.842
X129.988Y-77.199
X132.528Y-77.199
X135.068Y-77.199
X135.9Y-86.868
X135.9Y-89.408
X135.9Y-91.948
X135.9Y-94.488
X135.9Y-97.028
X135.9Y-99.568
X135.9Y-102.108
X135.9Y-104.648
X135.9Y-107.188
X135.9Y-109.728
X135.9Y-112.268
X135.9Y-114.808
X135.9Y-117.348
X135.9Y-119.888
X135.9Y-122.428
X137.608Y-77.199
X143.51Y-69.85
X143.51Y-72.39
X149.479Y-77.089
X151.14Y-86.868
X151.14Y-89.408
X151.14Y-91.948
X151.14Y-94.488
X151.14Y-97.028
X151.14Y-99.568
X151.14Y-102.108
X151.14Y-104.648
X151.14Y-107.188
X151.14Y-109.728
X151.14Y-112.268
X151.14Y-114.808
X151.14Y-117.348
X151.14Y-119.888
X151.14Y-122.428
X152.019Y-77.089
X154.559Y-77.089
X155.702Y-145.542
X157.099Y-77.089
X158.242Y-145.542
X159.766Y-133.096
X160.782Y-145.542
X162.306Y-133.096
X163.322Y-145.542
X164.846Y-133.096
X165.862Y-145.542
X167.386Y-133.096
X168.402Y-145.542
X176.513Y-101.6
X176.513Y-104.14
X176.513Y-106.68
X176.513Y-109.22
T4
X108.458Y-101.934
X108.458Y-109.134
T0
M30
