%TF.GenerationSoftware,KiCad,Pcbnew,7.0.1*%
%TF.CreationDate,2023-05-08T23:11:17+02:00*%
%TF.ProjectId,rockobot,726f636b-6f62-46f7-942e-6b696361645f,V1*%
%TF.SameCoordinates,Original*%
%TF.FileFunction,Drillmap*%
%TF.FilePolarity,Positive*%
%FSLAX45Y45*%
G04 Gerber Fmt 4.5, Leading zero omitted, Abs format (unit mm)*
G04 Created by KiCad (PCBNEW 7.0.1) date 2023-05-08 23:11:17*
%MOMM*%
%LPD*%
G01*
G04 APERTURE LIST*
%ADD10C,0.100000*%
%ADD11C,0.200000*%
%ADD12C,0.080000*%
%ADD13C,0.095000*%
%ADD14C,0.450000*%
G04 APERTURE END LIST*
D10*
X10442000Y-14605000D02*
G75*
G03*
X10442000Y-14605000I-155000J0D01*
G01*
X9906000Y-6096000D02*
X18796000Y-6096000D01*
X18796000Y-14986000D01*
X9906000Y-14986000D01*
X9906000Y-6096000D01*
X18570000Y-6477000D02*
G75*
G03*
X18570000Y-6477000I-155000J0D01*
G01*
X18570000Y-14605000D02*
G75*
G03*
X18570000Y-14605000I-155000J0D01*
G01*
X10442000Y-6477000D02*
G75*
G03*
X10442000Y-6477000I-155000J0D01*
G01*
D11*
D12*
X15619100Y-9002400D02*
X15699100Y-9082400D01*
X15699100Y-9002400D02*
X15619100Y-9082400D01*
X15619100Y-9434200D02*
X15699100Y-9514200D01*
X15699100Y-9434200D02*
X15619100Y-9514200D01*
X15619100Y-9866000D02*
X15699100Y-9946000D01*
X15699100Y-9866000D02*
X15619100Y-9946000D01*
X15619100Y-10297800D02*
X15699100Y-10377800D01*
X15699100Y-10297800D02*
X15619100Y-10377800D01*
X15619100Y-10729600D02*
X15699100Y-10809600D01*
X15699100Y-10729600D02*
X15619100Y-10809600D01*
X15619100Y-11161400D02*
X15699100Y-11241400D01*
X15699100Y-11161400D02*
X15619100Y-11241400D01*
X15619100Y-11583900D02*
X15699100Y-11663900D01*
X15699100Y-11583900D02*
X15619100Y-11663900D01*
X15619100Y-12019900D02*
X15699100Y-12099900D01*
X15699100Y-12019900D02*
X15619100Y-12099900D01*
X17143100Y-9002400D02*
X17223100Y-9082400D01*
X17223100Y-9002400D02*
X17143100Y-9082400D01*
X17143100Y-9434200D02*
X17223100Y-9514200D01*
X17223100Y-9434200D02*
X17143100Y-9514200D01*
X17143100Y-9866000D02*
X17223100Y-9946000D01*
X17223100Y-9866000D02*
X17143100Y-9946000D01*
X17143100Y-10297800D02*
X17223100Y-10377800D01*
X17223100Y-10297800D02*
X17143100Y-10377800D01*
X17143100Y-10729600D02*
X17223100Y-10809600D01*
X17223100Y-10729600D02*
X17143100Y-10809600D01*
X17143100Y-11161400D02*
X17223100Y-11241400D01*
X17223100Y-11161400D02*
X17143100Y-11241400D01*
X17143100Y-11583900D02*
X17223100Y-11663900D01*
X17223100Y-11583900D02*
X17143100Y-11663900D01*
X17143100Y-12019900D02*
X17223100Y-12099900D01*
X17223100Y-12019900D02*
X17143100Y-12099900D01*
D13*
X11858500Y-10168000D02*
G75*
G03*
X11858500Y-10168000I-47500J0D01*
G01*
X11858500Y-10418000D02*
G75*
G03*
X11858500Y-10418000I-47500J0D01*
G01*
X11858500Y-10668000D02*
G75*
G03*
X11858500Y-10668000I-47500J0D01*
G01*
X11858500Y-10918000D02*
G75*
G03*
X11858500Y-10918000I-47500J0D01*
G01*
X12048300Y-13792200D02*
G75*
G03*
X12048300Y-13792200I-47500J0D01*
G01*
X12298300Y-13792200D02*
G75*
G03*
X12298300Y-13792200I-47500J0D01*
G01*
X12548300Y-13792200D02*
G75*
G03*
X12548300Y-13792200I-47500J0D01*
G01*
X12798300Y-13792200D02*
G75*
G03*
X12798300Y-13792200I-47500J0D01*
G01*
X13058300Y-7084900D02*
G75*
G03*
X13058300Y-7084900I-47500J0D01*
G01*
X13308300Y-7084900D02*
G75*
G03*
X13308300Y-7084900I-47500J0D01*
G01*
X13558300Y-7084900D02*
G75*
G03*
X13558300Y-7084900I-47500J0D01*
G01*
X13808300Y-7084900D02*
G75*
G03*
X13808300Y-7084900I-47500J0D01*
G01*
X14994700Y-7086600D02*
G75*
G03*
X14994700Y-7086600I-47500J0D01*
G01*
X15244700Y-7086600D02*
G75*
G03*
X15244700Y-7086600I-47500J0D01*
G01*
X15494700Y-7086600D02*
G75*
G03*
X15494700Y-7086600I-47500J0D01*
G01*
X15744700Y-7086600D02*
G75*
G03*
X15744700Y-7086600I-47500J0D01*
G01*
X16028100Y-13817600D02*
G75*
G03*
X16028100Y-13817600I-47500J0D01*
G01*
X16278100Y-13817600D02*
G75*
G03*
X16278100Y-13817600I-47500J0D01*
G01*
X16528100Y-13817600D02*
G75*
G03*
X16528100Y-13817600I-47500J0D01*
G01*
X16778100Y-13817600D02*
G75*
G03*
X16778100Y-13817600I-47500J0D01*
G01*
X18322800Y-10168000D02*
G75*
G03*
X18322800Y-10168000I-47500J0D01*
G01*
X18322800Y-10418000D02*
G75*
G03*
X18322800Y-10418000I-47500J0D01*
G01*
X18322800Y-10668000D02*
G75*
G03*
X18322800Y-10668000I-47500J0D01*
G01*
X18322800Y-10918000D02*
G75*
G03*
X18322800Y-10918000I-47500J0D01*
G01*
D10*
X10769600Y-8408200D02*
X10769600Y-8508200D01*
X10719600Y-8458200D02*
X10819600Y-8458200D01*
X10782300Y-6998500D02*
X10782300Y-7098500D01*
X10732300Y-7048500D02*
X10832300Y-7048500D01*
X10782300Y-8027200D02*
X10782300Y-8127200D01*
X10732300Y-8077200D02*
X10832300Y-8077200D01*
X10782300Y-9424200D02*
X10782300Y-9524200D01*
X10732300Y-9474200D02*
X10832300Y-9474200D01*
X11988800Y-13234200D02*
X11988800Y-13334200D01*
X11938800Y-13284200D02*
X12038800Y-13284200D01*
X12242800Y-13234200D02*
X12242800Y-13334200D01*
X12192800Y-13284200D02*
X12292800Y-13284200D01*
X12344400Y-14529600D02*
X12344400Y-14629600D01*
X12294400Y-14579600D02*
X12394400Y-14579600D01*
X12357100Y-9436900D02*
X12357100Y-9536900D01*
X12307100Y-9486900D02*
X12407100Y-9486900D01*
X12369800Y-6998500D02*
X12369800Y-7098500D01*
X12319800Y-7048500D02*
X12419800Y-7048500D01*
X12369800Y-8027200D02*
X12369800Y-8127200D01*
X12319800Y-8077200D02*
X12419800Y-8077200D01*
X12369800Y-8408200D02*
X12369800Y-8508200D01*
X12319800Y-8458200D02*
X12419800Y-8458200D01*
X12446000Y-10110000D02*
X12446000Y-10210000D01*
X12396000Y-10160000D02*
X12496000Y-10160000D01*
X12446000Y-10364000D02*
X12446000Y-10464000D01*
X12396000Y-10414000D02*
X12496000Y-10414000D01*
X12446000Y-10618000D02*
X12446000Y-10718000D01*
X12396000Y-10668000D02*
X12496000Y-10668000D01*
X12446000Y-10872000D02*
X12446000Y-10972000D01*
X12396000Y-10922000D02*
X12496000Y-10922000D01*
X12496800Y-13234200D02*
X12496800Y-13334200D01*
X12446800Y-13284200D02*
X12546800Y-13284200D01*
X12598400Y-14529600D02*
X12598400Y-14629600D01*
X12548400Y-14579600D02*
X12648400Y-14579600D01*
X12750800Y-13234200D02*
X12750800Y-13334200D01*
X12700800Y-13284200D02*
X12800800Y-13284200D01*
X12998800Y-7669900D02*
X12998800Y-7769900D01*
X12948800Y-7719900D02*
X13048800Y-7719900D01*
X13252800Y-7669900D02*
X13252800Y-7769900D01*
X13202800Y-7719900D02*
X13302800Y-7719900D01*
X13506800Y-7669900D02*
X13506800Y-7769900D01*
X13456800Y-7719900D02*
X13556800Y-7719900D01*
X13590000Y-8636800D02*
X13590000Y-8736800D01*
X13540000Y-8686800D02*
X13640000Y-8686800D01*
X13590000Y-8890800D02*
X13590000Y-8990800D01*
X13540000Y-8940800D02*
X13640000Y-8940800D01*
X13590000Y-9144800D02*
X13590000Y-9244800D01*
X13540000Y-9194800D02*
X13640000Y-9194800D01*
X13590000Y-9398800D02*
X13590000Y-9498800D01*
X13540000Y-9448800D02*
X13640000Y-9448800D01*
X13590000Y-9652800D02*
X13590000Y-9752800D01*
X13540000Y-9702800D02*
X13640000Y-9702800D01*
X13590000Y-9906800D02*
X13590000Y-10006800D01*
X13540000Y-9956800D02*
X13640000Y-9956800D01*
X13590000Y-10160800D02*
X13590000Y-10260800D01*
X13540000Y-10210800D02*
X13640000Y-10210800D01*
X13590000Y-10414800D02*
X13590000Y-10514800D01*
X13540000Y-10464800D02*
X13640000Y-10464800D01*
X13590000Y-10668800D02*
X13590000Y-10768800D01*
X13540000Y-10718800D02*
X13640000Y-10718800D01*
X13590000Y-10922800D02*
X13590000Y-11022800D01*
X13540000Y-10972800D02*
X13640000Y-10972800D01*
X13590000Y-11176800D02*
X13590000Y-11276800D01*
X13540000Y-11226800D02*
X13640000Y-11226800D01*
X13590000Y-11430800D02*
X13590000Y-11530800D01*
X13540000Y-11480800D02*
X13640000Y-11480800D01*
X13590000Y-11684800D02*
X13590000Y-11784800D01*
X13540000Y-11734800D02*
X13640000Y-11734800D01*
X13590000Y-11938800D02*
X13590000Y-12038800D01*
X13540000Y-11988800D02*
X13640000Y-11988800D01*
X13590000Y-12192800D02*
X13590000Y-12292800D01*
X13540000Y-12242800D02*
X13640000Y-12242800D01*
X13760800Y-7669900D02*
X13760800Y-7769900D01*
X13710800Y-7719900D02*
X13810800Y-7719900D01*
X14351000Y-6935000D02*
X14351000Y-7035000D01*
X14301000Y-6985000D02*
X14401000Y-6985000D01*
X14351000Y-7189000D02*
X14351000Y-7289000D01*
X14301000Y-7239000D02*
X14401000Y-7239000D01*
X14947900Y-7658900D02*
X14947900Y-7758900D01*
X14897900Y-7708900D02*
X14997900Y-7708900D01*
X15114000Y-8636800D02*
X15114000Y-8736800D01*
X15064000Y-8686800D02*
X15164000Y-8686800D01*
X15114000Y-8890800D02*
X15114000Y-8990800D01*
X15064000Y-8940800D02*
X15164000Y-8940800D01*
X15114000Y-9144800D02*
X15114000Y-9244800D01*
X15064000Y-9194800D02*
X15164000Y-9194800D01*
X15114000Y-9398800D02*
X15114000Y-9498800D01*
X15064000Y-9448800D02*
X15164000Y-9448800D01*
X15114000Y-9652800D02*
X15114000Y-9752800D01*
X15064000Y-9702800D02*
X15164000Y-9702800D01*
X15114000Y-9906800D02*
X15114000Y-10006800D01*
X15064000Y-9956800D02*
X15164000Y-9956800D01*
X15114000Y-10160800D02*
X15114000Y-10260800D01*
X15064000Y-10210800D02*
X15164000Y-10210800D01*
X15114000Y-10414800D02*
X15114000Y-10514800D01*
X15064000Y-10464800D02*
X15164000Y-10464800D01*
X15114000Y-10668800D02*
X15114000Y-10768800D01*
X15064000Y-10718800D02*
X15164000Y-10718800D01*
X15114000Y-10922800D02*
X15114000Y-11022800D01*
X15064000Y-10972800D02*
X15164000Y-10972800D01*
X15114000Y-11176800D02*
X15114000Y-11276800D01*
X15064000Y-11226800D02*
X15164000Y-11226800D01*
X15114000Y-11430800D02*
X15114000Y-11530800D01*
X15064000Y-11480800D02*
X15164000Y-11480800D01*
X15114000Y-11684800D02*
X15114000Y-11784800D01*
X15064000Y-11734800D02*
X15164000Y-11734800D01*
X15114000Y-11938800D02*
X15114000Y-12038800D01*
X15064000Y-11988800D02*
X15164000Y-11988800D01*
X15114000Y-12192800D02*
X15114000Y-12292800D01*
X15064000Y-12242800D02*
X15164000Y-12242800D01*
X15201900Y-7658900D02*
X15201900Y-7758900D01*
X15151900Y-7708900D02*
X15251900Y-7708900D01*
X15455900Y-7658900D02*
X15455900Y-7758900D01*
X15405900Y-7708900D02*
X15505900Y-7708900D01*
X15570200Y-14504200D02*
X15570200Y-14604200D01*
X15520200Y-14554200D02*
X15620200Y-14554200D01*
X15709900Y-7658900D02*
X15709900Y-7758900D01*
X15659900Y-7708900D02*
X15759900Y-7708900D01*
X15824200Y-14504200D02*
X15824200Y-14604200D01*
X15774200Y-14554200D02*
X15874200Y-14554200D01*
X15976600Y-13259600D02*
X15976600Y-13359600D01*
X15926600Y-13309600D02*
X16026600Y-13309600D01*
X16078200Y-14504200D02*
X16078200Y-14604200D01*
X16028200Y-14554200D02*
X16128200Y-14554200D01*
X16230600Y-13259600D02*
X16230600Y-13359600D01*
X16180600Y-13309600D02*
X16280600Y-13309600D01*
X16332200Y-14504200D02*
X16332200Y-14604200D01*
X16282200Y-14554200D02*
X16382200Y-14554200D01*
X16484600Y-13259600D02*
X16484600Y-13359600D01*
X16434600Y-13309600D02*
X16534600Y-13309600D01*
X16586200Y-14504200D02*
X16586200Y-14604200D01*
X16536200Y-14554200D02*
X16636200Y-14554200D01*
X16738600Y-13259600D02*
X16738600Y-13359600D01*
X16688600Y-13309600D02*
X16788600Y-13309600D01*
X16840200Y-14504200D02*
X16840200Y-14604200D01*
X16790200Y-14554200D02*
X16890200Y-14554200D01*
X17651300Y-10110000D02*
X17651300Y-10210000D01*
X17601300Y-10160000D02*
X17701300Y-10160000D01*
X17651300Y-10364000D02*
X17651300Y-10464000D01*
X17601300Y-10414000D02*
X17701300Y-10414000D01*
X17651300Y-10618000D02*
X17651300Y-10718000D01*
X17601300Y-10668000D02*
X17701300Y-10668000D01*
X17651300Y-10872000D02*
X17651300Y-10972000D01*
X17601300Y-10922000D02*
X17701300Y-10922000D01*
D14*
X11004901Y-10352501D02*
X11004901Y-10034299D01*
X10686699Y-10034299D01*
X10686699Y-10352501D01*
X11004901Y-10352501D01*
X11004901Y-11072501D02*
X11004901Y-10754299D01*
X10686699Y-10754299D01*
X10686699Y-11072501D01*
X11004901Y-11072501D01*
D11*
X10148619Y-15303524D02*
X10148619Y-15103524D01*
X10148619Y-15103524D02*
X10196238Y-15103524D01*
X10196238Y-15103524D02*
X10224810Y-15113048D01*
X10224810Y-15113048D02*
X10243857Y-15132095D01*
X10243857Y-15132095D02*
X10253381Y-15151143D01*
X10253381Y-15151143D02*
X10262905Y-15189238D01*
X10262905Y-15189238D02*
X10262905Y-15217809D01*
X10262905Y-15217809D02*
X10253381Y-15255905D01*
X10253381Y-15255905D02*
X10243857Y-15274952D01*
X10243857Y-15274952D02*
X10224810Y-15294000D01*
X10224810Y-15294000D02*
X10196238Y-15303524D01*
X10196238Y-15303524D02*
X10148619Y-15303524D01*
X10348619Y-15303524D02*
X10348619Y-15170190D01*
X10348619Y-15208286D02*
X10358143Y-15189238D01*
X10358143Y-15189238D02*
X10367667Y-15179714D01*
X10367667Y-15179714D02*
X10386714Y-15170190D01*
X10386714Y-15170190D02*
X10405762Y-15170190D01*
X10472429Y-15303524D02*
X10472429Y-15170190D01*
X10472429Y-15103524D02*
X10462905Y-15113048D01*
X10462905Y-15113048D02*
X10472429Y-15122571D01*
X10472429Y-15122571D02*
X10481952Y-15113048D01*
X10481952Y-15113048D02*
X10472429Y-15103524D01*
X10472429Y-15103524D02*
X10472429Y-15122571D01*
X10596238Y-15303524D02*
X10577190Y-15294000D01*
X10577190Y-15294000D02*
X10567667Y-15274952D01*
X10567667Y-15274952D02*
X10567667Y-15103524D01*
X10701000Y-15303524D02*
X10681952Y-15294000D01*
X10681952Y-15294000D02*
X10672429Y-15274952D01*
X10672429Y-15274952D02*
X10672429Y-15103524D01*
X10929571Y-15303524D02*
X10929571Y-15103524D01*
X10929571Y-15103524D02*
X10996238Y-15246381D01*
X10996238Y-15246381D02*
X11062905Y-15103524D01*
X11062905Y-15103524D02*
X11062905Y-15303524D01*
X11243857Y-15303524D02*
X11243857Y-15198762D01*
X11243857Y-15198762D02*
X11234333Y-15179714D01*
X11234333Y-15179714D02*
X11215286Y-15170190D01*
X11215286Y-15170190D02*
X11177190Y-15170190D01*
X11177190Y-15170190D02*
X11158143Y-15179714D01*
X11243857Y-15294000D02*
X11224809Y-15303524D01*
X11224809Y-15303524D02*
X11177190Y-15303524D01*
X11177190Y-15303524D02*
X11158143Y-15294000D01*
X11158143Y-15294000D02*
X11148619Y-15274952D01*
X11148619Y-15274952D02*
X11148619Y-15255905D01*
X11148619Y-15255905D02*
X11158143Y-15236857D01*
X11158143Y-15236857D02*
X11177190Y-15227333D01*
X11177190Y-15227333D02*
X11224809Y-15227333D01*
X11224809Y-15227333D02*
X11243857Y-15217809D01*
X11339095Y-15170190D02*
X11339095Y-15370190D01*
X11339095Y-15179714D02*
X11358143Y-15170190D01*
X11358143Y-15170190D02*
X11396238Y-15170190D01*
X11396238Y-15170190D02*
X11415286Y-15179714D01*
X11415286Y-15179714D02*
X11424809Y-15189238D01*
X11424809Y-15189238D02*
X11434333Y-15208286D01*
X11434333Y-15208286D02*
X11434333Y-15265428D01*
X11434333Y-15265428D02*
X11424809Y-15284476D01*
X11424809Y-15284476D02*
X11415286Y-15294000D01*
X11415286Y-15294000D02*
X11396238Y-15303524D01*
X11396238Y-15303524D02*
X11358143Y-15303524D01*
X11358143Y-15303524D02*
X11339095Y-15294000D01*
X11520048Y-15284476D02*
X11529571Y-15294000D01*
X11529571Y-15294000D02*
X11520048Y-15303524D01*
X11520048Y-15303524D02*
X11510524Y-15294000D01*
X11510524Y-15294000D02*
X11520048Y-15284476D01*
X11520048Y-15284476D02*
X11520048Y-15303524D01*
X11520048Y-15179714D02*
X11529571Y-15189238D01*
X11529571Y-15189238D02*
X11520048Y-15198762D01*
X11520048Y-15198762D02*
X11510524Y-15189238D01*
X11510524Y-15189238D02*
X11520048Y-15179714D01*
X11520048Y-15179714D02*
X11520048Y-15198762D01*
D12*
X9821000Y-15591000D02*
X9901000Y-15671000D01*
X9901000Y-15591000D02*
X9821000Y-15671000D01*
D11*
X10186714Y-15523524D02*
X10205762Y-15523524D01*
X10205762Y-15523524D02*
X10224810Y-15533048D01*
X10224810Y-15533048D02*
X10234333Y-15542571D01*
X10234333Y-15542571D02*
X10243857Y-15561619D01*
X10243857Y-15561619D02*
X10253381Y-15599714D01*
X10253381Y-15599714D02*
X10253381Y-15647333D01*
X10253381Y-15647333D02*
X10243857Y-15685428D01*
X10243857Y-15685428D02*
X10234333Y-15704476D01*
X10234333Y-15704476D02*
X10224810Y-15714000D01*
X10224810Y-15714000D02*
X10205762Y-15723524D01*
X10205762Y-15723524D02*
X10186714Y-15723524D01*
X10186714Y-15723524D02*
X10167667Y-15714000D01*
X10167667Y-15714000D02*
X10158143Y-15704476D01*
X10158143Y-15704476D02*
X10148619Y-15685428D01*
X10148619Y-15685428D02*
X10139095Y-15647333D01*
X10139095Y-15647333D02*
X10139095Y-15599714D01*
X10139095Y-15599714D02*
X10148619Y-15561619D01*
X10148619Y-15561619D02*
X10158143Y-15542571D01*
X10158143Y-15542571D02*
X10167667Y-15533048D01*
X10167667Y-15533048D02*
X10186714Y-15523524D01*
X10339095Y-15704476D02*
X10348619Y-15714000D01*
X10348619Y-15714000D02*
X10339095Y-15723524D01*
X10339095Y-15723524D02*
X10329571Y-15714000D01*
X10329571Y-15714000D02*
X10339095Y-15704476D01*
X10339095Y-15704476D02*
X10339095Y-15723524D01*
X10462905Y-15609238D02*
X10443857Y-15599714D01*
X10443857Y-15599714D02*
X10434333Y-15590190D01*
X10434333Y-15590190D02*
X10424810Y-15571143D01*
X10424810Y-15571143D02*
X10424810Y-15561619D01*
X10424810Y-15561619D02*
X10434333Y-15542571D01*
X10434333Y-15542571D02*
X10443857Y-15533048D01*
X10443857Y-15533048D02*
X10462905Y-15523524D01*
X10462905Y-15523524D02*
X10501000Y-15523524D01*
X10501000Y-15523524D02*
X10520048Y-15533048D01*
X10520048Y-15533048D02*
X10529571Y-15542571D01*
X10529571Y-15542571D02*
X10539095Y-15561619D01*
X10539095Y-15561619D02*
X10539095Y-15571143D01*
X10539095Y-15571143D02*
X10529571Y-15590190D01*
X10529571Y-15590190D02*
X10520048Y-15599714D01*
X10520048Y-15599714D02*
X10501000Y-15609238D01*
X10501000Y-15609238D02*
X10462905Y-15609238D01*
X10462905Y-15609238D02*
X10443857Y-15618762D01*
X10443857Y-15618762D02*
X10434333Y-15628286D01*
X10434333Y-15628286D02*
X10424810Y-15647333D01*
X10424810Y-15647333D02*
X10424810Y-15685428D01*
X10424810Y-15685428D02*
X10434333Y-15704476D01*
X10434333Y-15704476D02*
X10443857Y-15714000D01*
X10443857Y-15714000D02*
X10462905Y-15723524D01*
X10462905Y-15723524D02*
X10501000Y-15723524D01*
X10501000Y-15723524D02*
X10520048Y-15714000D01*
X10520048Y-15714000D02*
X10529571Y-15704476D01*
X10529571Y-15704476D02*
X10539095Y-15685428D01*
X10539095Y-15685428D02*
X10539095Y-15647333D01*
X10539095Y-15647333D02*
X10529571Y-15628286D01*
X10529571Y-15628286D02*
X10520048Y-15618762D01*
X10520048Y-15618762D02*
X10501000Y-15609238D01*
X10662905Y-15523524D02*
X10681952Y-15523524D01*
X10681952Y-15523524D02*
X10701000Y-15533048D01*
X10701000Y-15533048D02*
X10710524Y-15542571D01*
X10710524Y-15542571D02*
X10720048Y-15561619D01*
X10720048Y-15561619D02*
X10729571Y-15599714D01*
X10729571Y-15599714D02*
X10729571Y-15647333D01*
X10729571Y-15647333D02*
X10720048Y-15685428D01*
X10720048Y-15685428D02*
X10710524Y-15704476D01*
X10710524Y-15704476D02*
X10701000Y-15714000D01*
X10701000Y-15714000D02*
X10681952Y-15723524D01*
X10681952Y-15723524D02*
X10662905Y-15723524D01*
X10662905Y-15723524D02*
X10643857Y-15714000D01*
X10643857Y-15714000D02*
X10634333Y-15704476D01*
X10634333Y-15704476D02*
X10624810Y-15685428D01*
X10624810Y-15685428D02*
X10615286Y-15647333D01*
X10615286Y-15647333D02*
X10615286Y-15599714D01*
X10615286Y-15599714D02*
X10624810Y-15561619D01*
X10624810Y-15561619D02*
X10634333Y-15542571D01*
X10634333Y-15542571D02*
X10643857Y-15533048D01*
X10643857Y-15533048D02*
X10662905Y-15523524D01*
X10853381Y-15523524D02*
X10872429Y-15523524D01*
X10872429Y-15523524D02*
X10891476Y-15533048D01*
X10891476Y-15533048D02*
X10901000Y-15542571D01*
X10901000Y-15542571D02*
X10910524Y-15561619D01*
X10910524Y-15561619D02*
X10920048Y-15599714D01*
X10920048Y-15599714D02*
X10920048Y-15647333D01*
X10920048Y-15647333D02*
X10910524Y-15685428D01*
X10910524Y-15685428D02*
X10901000Y-15704476D01*
X10901000Y-15704476D02*
X10891476Y-15714000D01*
X10891476Y-15714000D02*
X10872429Y-15723524D01*
X10872429Y-15723524D02*
X10853381Y-15723524D01*
X10853381Y-15723524D02*
X10834333Y-15714000D01*
X10834333Y-15714000D02*
X10824810Y-15704476D01*
X10824810Y-15704476D02*
X10815286Y-15685428D01*
X10815286Y-15685428D02*
X10805762Y-15647333D01*
X10805762Y-15647333D02*
X10805762Y-15599714D01*
X10805762Y-15599714D02*
X10815286Y-15561619D01*
X10815286Y-15561619D02*
X10824810Y-15542571D01*
X10824810Y-15542571D02*
X10834333Y-15533048D01*
X10834333Y-15533048D02*
X10853381Y-15523524D01*
X11005762Y-15723524D02*
X11005762Y-15590190D01*
X11005762Y-15609238D02*
X11015286Y-15599714D01*
X11015286Y-15599714D02*
X11034333Y-15590190D01*
X11034333Y-15590190D02*
X11062905Y-15590190D01*
X11062905Y-15590190D02*
X11081952Y-15599714D01*
X11081952Y-15599714D02*
X11091476Y-15618762D01*
X11091476Y-15618762D02*
X11091476Y-15723524D01*
X11091476Y-15618762D02*
X11101000Y-15599714D01*
X11101000Y-15599714D02*
X11120048Y-15590190D01*
X11120048Y-15590190D02*
X11148619Y-15590190D01*
X11148619Y-15590190D02*
X11167667Y-15599714D01*
X11167667Y-15599714D02*
X11177191Y-15618762D01*
X11177191Y-15618762D02*
X11177191Y-15723524D01*
X11272429Y-15723524D02*
X11272429Y-15590190D01*
X11272429Y-15609238D02*
X11281952Y-15599714D01*
X11281952Y-15599714D02*
X11301000Y-15590190D01*
X11301000Y-15590190D02*
X11329571Y-15590190D01*
X11329571Y-15590190D02*
X11348619Y-15599714D01*
X11348619Y-15599714D02*
X11358143Y-15618762D01*
X11358143Y-15618762D02*
X11358143Y-15723524D01*
X11358143Y-15618762D02*
X11367667Y-15599714D01*
X11367667Y-15599714D02*
X11386714Y-15590190D01*
X11386714Y-15590190D02*
X11415286Y-15590190D01*
X11415286Y-15590190D02*
X11434333Y-15599714D01*
X11434333Y-15599714D02*
X11443857Y-15618762D01*
X11443857Y-15618762D02*
X11443857Y-15723524D01*
X11834333Y-15514000D02*
X11662905Y-15771143D01*
X12091476Y-15523524D02*
X12110524Y-15523524D01*
X12110524Y-15523524D02*
X12129572Y-15533048D01*
X12129572Y-15533048D02*
X12139095Y-15542571D01*
X12139095Y-15542571D02*
X12148619Y-15561619D01*
X12148619Y-15561619D02*
X12158143Y-15599714D01*
X12158143Y-15599714D02*
X12158143Y-15647333D01*
X12158143Y-15647333D02*
X12148619Y-15685428D01*
X12148619Y-15685428D02*
X12139095Y-15704476D01*
X12139095Y-15704476D02*
X12129572Y-15714000D01*
X12129572Y-15714000D02*
X12110524Y-15723524D01*
X12110524Y-15723524D02*
X12091476Y-15723524D01*
X12091476Y-15723524D02*
X12072429Y-15714000D01*
X12072429Y-15714000D02*
X12062905Y-15704476D01*
X12062905Y-15704476D02*
X12053381Y-15685428D01*
X12053381Y-15685428D02*
X12043857Y-15647333D01*
X12043857Y-15647333D02*
X12043857Y-15599714D01*
X12043857Y-15599714D02*
X12053381Y-15561619D01*
X12053381Y-15561619D02*
X12062905Y-15542571D01*
X12062905Y-15542571D02*
X12072429Y-15533048D01*
X12072429Y-15533048D02*
X12091476Y-15523524D01*
X12243857Y-15704476D02*
X12253381Y-15714000D01*
X12253381Y-15714000D02*
X12243857Y-15723524D01*
X12243857Y-15723524D02*
X12234333Y-15714000D01*
X12234333Y-15714000D02*
X12243857Y-15704476D01*
X12243857Y-15704476D02*
X12243857Y-15723524D01*
X12377191Y-15523524D02*
X12396238Y-15523524D01*
X12396238Y-15523524D02*
X12415286Y-15533048D01*
X12415286Y-15533048D02*
X12424810Y-15542571D01*
X12424810Y-15542571D02*
X12434333Y-15561619D01*
X12434333Y-15561619D02*
X12443857Y-15599714D01*
X12443857Y-15599714D02*
X12443857Y-15647333D01*
X12443857Y-15647333D02*
X12434333Y-15685428D01*
X12434333Y-15685428D02*
X12424810Y-15704476D01*
X12424810Y-15704476D02*
X12415286Y-15714000D01*
X12415286Y-15714000D02*
X12396238Y-15723524D01*
X12396238Y-15723524D02*
X12377191Y-15723524D01*
X12377191Y-15723524D02*
X12358143Y-15714000D01*
X12358143Y-15714000D02*
X12348619Y-15704476D01*
X12348619Y-15704476D02*
X12339095Y-15685428D01*
X12339095Y-15685428D02*
X12329572Y-15647333D01*
X12329572Y-15647333D02*
X12329572Y-15599714D01*
X12329572Y-15599714D02*
X12339095Y-15561619D01*
X12339095Y-15561619D02*
X12348619Y-15542571D01*
X12348619Y-15542571D02*
X12358143Y-15533048D01*
X12358143Y-15533048D02*
X12377191Y-15523524D01*
X12510524Y-15523524D02*
X12634333Y-15523524D01*
X12634333Y-15523524D02*
X12567667Y-15599714D01*
X12567667Y-15599714D02*
X12596238Y-15599714D01*
X12596238Y-15599714D02*
X12615286Y-15609238D01*
X12615286Y-15609238D02*
X12624810Y-15618762D01*
X12624810Y-15618762D02*
X12634333Y-15637809D01*
X12634333Y-15637809D02*
X12634333Y-15685428D01*
X12634333Y-15685428D02*
X12624810Y-15704476D01*
X12624810Y-15704476D02*
X12615286Y-15714000D01*
X12615286Y-15714000D02*
X12596238Y-15723524D01*
X12596238Y-15723524D02*
X12539095Y-15723524D01*
X12539095Y-15723524D02*
X12520048Y-15714000D01*
X12520048Y-15714000D02*
X12510524Y-15704476D01*
X12824810Y-15723524D02*
X12710524Y-15723524D01*
X12767667Y-15723524D02*
X12767667Y-15523524D01*
X12767667Y-15523524D02*
X12748619Y-15552095D01*
X12748619Y-15552095D02*
X12729572Y-15571143D01*
X12729572Y-15571143D02*
X12710524Y-15580667D01*
X13005762Y-15523524D02*
X12910524Y-15523524D01*
X12910524Y-15523524D02*
X12901000Y-15618762D01*
X12901000Y-15618762D02*
X12910524Y-15609238D01*
X12910524Y-15609238D02*
X12929572Y-15599714D01*
X12929572Y-15599714D02*
X12977191Y-15599714D01*
X12977191Y-15599714D02*
X12996238Y-15609238D01*
X12996238Y-15609238D02*
X13005762Y-15618762D01*
X13005762Y-15618762D02*
X13015286Y-15637809D01*
X13015286Y-15637809D02*
X13015286Y-15685428D01*
X13015286Y-15685428D02*
X13005762Y-15704476D01*
X13005762Y-15704476D02*
X12996238Y-15714000D01*
X12996238Y-15714000D02*
X12977191Y-15723524D01*
X12977191Y-15723524D02*
X12929572Y-15723524D01*
X12929572Y-15723524D02*
X12910524Y-15714000D01*
X12910524Y-15714000D02*
X12901000Y-15704476D01*
X13091476Y-15523524D02*
X13091476Y-15561619D01*
X13167667Y-15523524D02*
X13167667Y-15561619D01*
X13462905Y-15799714D02*
X13453381Y-15790190D01*
X13453381Y-15790190D02*
X13434334Y-15761619D01*
X13434334Y-15761619D02*
X13424810Y-15742571D01*
X13424810Y-15742571D02*
X13415286Y-15714000D01*
X13415286Y-15714000D02*
X13405762Y-15666381D01*
X13405762Y-15666381D02*
X13405762Y-15628286D01*
X13405762Y-15628286D02*
X13415286Y-15580667D01*
X13415286Y-15580667D02*
X13424810Y-15552095D01*
X13424810Y-15552095D02*
X13434334Y-15533048D01*
X13434334Y-15533048D02*
X13453381Y-15504476D01*
X13453381Y-15504476D02*
X13462905Y-15494952D01*
X13643857Y-15723524D02*
X13529572Y-15723524D01*
X13586714Y-15723524D02*
X13586714Y-15523524D01*
X13586714Y-15523524D02*
X13567667Y-15552095D01*
X13567667Y-15552095D02*
X13548619Y-15571143D01*
X13548619Y-15571143D02*
X13529572Y-15580667D01*
X13815286Y-15523524D02*
X13777191Y-15523524D01*
X13777191Y-15523524D02*
X13758143Y-15533048D01*
X13758143Y-15533048D02*
X13748619Y-15542571D01*
X13748619Y-15542571D02*
X13729572Y-15571143D01*
X13729572Y-15571143D02*
X13720048Y-15609238D01*
X13720048Y-15609238D02*
X13720048Y-15685428D01*
X13720048Y-15685428D02*
X13729572Y-15704476D01*
X13729572Y-15704476D02*
X13739095Y-15714000D01*
X13739095Y-15714000D02*
X13758143Y-15723524D01*
X13758143Y-15723524D02*
X13796238Y-15723524D01*
X13796238Y-15723524D02*
X13815286Y-15714000D01*
X13815286Y-15714000D02*
X13824810Y-15704476D01*
X13824810Y-15704476D02*
X13834334Y-15685428D01*
X13834334Y-15685428D02*
X13834334Y-15637809D01*
X13834334Y-15637809D02*
X13824810Y-15618762D01*
X13824810Y-15618762D02*
X13815286Y-15609238D01*
X13815286Y-15609238D02*
X13796238Y-15599714D01*
X13796238Y-15599714D02*
X13758143Y-15599714D01*
X13758143Y-15599714D02*
X13739095Y-15609238D01*
X13739095Y-15609238D02*
X13729572Y-15618762D01*
X13729572Y-15618762D02*
X13720048Y-15637809D01*
X14072429Y-15723524D02*
X14072429Y-15523524D01*
X14158143Y-15723524D02*
X14158143Y-15618762D01*
X14158143Y-15618762D02*
X14148619Y-15599714D01*
X14148619Y-15599714D02*
X14129572Y-15590190D01*
X14129572Y-15590190D02*
X14101000Y-15590190D01*
X14101000Y-15590190D02*
X14081953Y-15599714D01*
X14081953Y-15599714D02*
X14072429Y-15609238D01*
X14281953Y-15723524D02*
X14262905Y-15714000D01*
X14262905Y-15714000D02*
X14253381Y-15704476D01*
X14253381Y-15704476D02*
X14243857Y-15685428D01*
X14243857Y-15685428D02*
X14243857Y-15628286D01*
X14243857Y-15628286D02*
X14253381Y-15609238D01*
X14253381Y-15609238D02*
X14262905Y-15599714D01*
X14262905Y-15599714D02*
X14281953Y-15590190D01*
X14281953Y-15590190D02*
X14310524Y-15590190D01*
X14310524Y-15590190D02*
X14329572Y-15599714D01*
X14329572Y-15599714D02*
X14339096Y-15609238D01*
X14339096Y-15609238D02*
X14348619Y-15628286D01*
X14348619Y-15628286D02*
X14348619Y-15685428D01*
X14348619Y-15685428D02*
X14339096Y-15704476D01*
X14339096Y-15704476D02*
X14329572Y-15714000D01*
X14329572Y-15714000D02*
X14310524Y-15723524D01*
X14310524Y-15723524D02*
X14281953Y-15723524D01*
X14462905Y-15723524D02*
X14443857Y-15714000D01*
X14443857Y-15714000D02*
X14434334Y-15694952D01*
X14434334Y-15694952D02*
X14434334Y-15523524D01*
X14615286Y-15714000D02*
X14596238Y-15723524D01*
X14596238Y-15723524D02*
X14558143Y-15723524D01*
X14558143Y-15723524D02*
X14539096Y-15714000D01*
X14539096Y-15714000D02*
X14529572Y-15694952D01*
X14529572Y-15694952D02*
X14529572Y-15618762D01*
X14529572Y-15618762D02*
X14539096Y-15599714D01*
X14539096Y-15599714D02*
X14558143Y-15590190D01*
X14558143Y-15590190D02*
X14596238Y-15590190D01*
X14596238Y-15590190D02*
X14615286Y-15599714D01*
X14615286Y-15599714D02*
X14624810Y-15618762D01*
X14624810Y-15618762D02*
X14624810Y-15637809D01*
X14624810Y-15637809D02*
X14529572Y-15656857D01*
X14701000Y-15714000D02*
X14720048Y-15723524D01*
X14720048Y-15723524D02*
X14758143Y-15723524D01*
X14758143Y-15723524D02*
X14777191Y-15714000D01*
X14777191Y-15714000D02*
X14786715Y-15694952D01*
X14786715Y-15694952D02*
X14786715Y-15685428D01*
X14786715Y-15685428D02*
X14777191Y-15666381D01*
X14777191Y-15666381D02*
X14758143Y-15656857D01*
X14758143Y-15656857D02*
X14729572Y-15656857D01*
X14729572Y-15656857D02*
X14710524Y-15647333D01*
X14710524Y-15647333D02*
X14701000Y-15628286D01*
X14701000Y-15628286D02*
X14701000Y-15618762D01*
X14701000Y-15618762D02*
X14710524Y-15599714D01*
X14710524Y-15599714D02*
X14729572Y-15590190D01*
X14729572Y-15590190D02*
X14758143Y-15590190D01*
X14758143Y-15590190D02*
X14777191Y-15599714D01*
X14853381Y-15799714D02*
X14862905Y-15790190D01*
X14862905Y-15790190D02*
X14881953Y-15761619D01*
X14881953Y-15761619D02*
X14891477Y-15742571D01*
X14891477Y-15742571D02*
X14901000Y-15714000D01*
X14901000Y-15714000D02*
X14910524Y-15666381D01*
X14910524Y-15666381D02*
X14910524Y-15628286D01*
X14910524Y-15628286D02*
X14901000Y-15580667D01*
X14901000Y-15580667D02*
X14891477Y-15552095D01*
X14891477Y-15552095D02*
X14881953Y-15533048D01*
X14881953Y-15533048D02*
X14862905Y-15504476D01*
X14862905Y-15504476D02*
X14853381Y-15494952D01*
D13*
X9901000Y-15895000D02*
G75*
G03*
X9901000Y-15895000I-47500J0D01*
G01*
D11*
X10186714Y-15787524D02*
X10205762Y-15787524D01*
X10205762Y-15787524D02*
X10224810Y-15797048D01*
X10224810Y-15797048D02*
X10234333Y-15806571D01*
X10234333Y-15806571D02*
X10243857Y-15825619D01*
X10243857Y-15825619D02*
X10253381Y-15863714D01*
X10253381Y-15863714D02*
X10253381Y-15911333D01*
X10253381Y-15911333D02*
X10243857Y-15949428D01*
X10243857Y-15949428D02*
X10234333Y-15968476D01*
X10234333Y-15968476D02*
X10224810Y-15978000D01*
X10224810Y-15978000D02*
X10205762Y-15987524D01*
X10205762Y-15987524D02*
X10186714Y-15987524D01*
X10186714Y-15987524D02*
X10167667Y-15978000D01*
X10167667Y-15978000D02*
X10158143Y-15968476D01*
X10158143Y-15968476D02*
X10148619Y-15949428D01*
X10148619Y-15949428D02*
X10139095Y-15911333D01*
X10139095Y-15911333D02*
X10139095Y-15863714D01*
X10139095Y-15863714D02*
X10148619Y-15825619D01*
X10148619Y-15825619D02*
X10158143Y-15806571D01*
X10158143Y-15806571D02*
X10167667Y-15797048D01*
X10167667Y-15797048D02*
X10186714Y-15787524D01*
X10339095Y-15968476D02*
X10348619Y-15978000D01*
X10348619Y-15978000D02*
X10339095Y-15987524D01*
X10339095Y-15987524D02*
X10329571Y-15978000D01*
X10329571Y-15978000D02*
X10339095Y-15968476D01*
X10339095Y-15968476D02*
X10339095Y-15987524D01*
X10443857Y-15987524D02*
X10481952Y-15987524D01*
X10481952Y-15987524D02*
X10501000Y-15978000D01*
X10501000Y-15978000D02*
X10510524Y-15968476D01*
X10510524Y-15968476D02*
X10529571Y-15939905D01*
X10529571Y-15939905D02*
X10539095Y-15901809D01*
X10539095Y-15901809D02*
X10539095Y-15825619D01*
X10539095Y-15825619D02*
X10529571Y-15806571D01*
X10529571Y-15806571D02*
X10520048Y-15797048D01*
X10520048Y-15797048D02*
X10501000Y-15787524D01*
X10501000Y-15787524D02*
X10462905Y-15787524D01*
X10462905Y-15787524D02*
X10443857Y-15797048D01*
X10443857Y-15797048D02*
X10434333Y-15806571D01*
X10434333Y-15806571D02*
X10424810Y-15825619D01*
X10424810Y-15825619D02*
X10424810Y-15873238D01*
X10424810Y-15873238D02*
X10434333Y-15892286D01*
X10434333Y-15892286D02*
X10443857Y-15901809D01*
X10443857Y-15901809D02*
X10462905Y-15911333D01*
X10462905Y-15911333D02*
X10501000Y-15911333D01*
X10501000Y-15911333D02*
X10520048Y-15901809D01*
X10520048Y-15901809D02*
X10529571Y-15892286D01*
X10529571Y-15892286D02*
X10539095Y-15873238D01*
X10720048Y-15787524D02*
X10624810Y-15787524D01*
X10624810Y-15787524D02*
X10615286Y-15882762D01*
X10615286Y-15882762D02*
X10624810Y-15873238D01*
X10624810Y-15873238D02*
X10643857Y-15863714D01*
X10643857Y-15863714D02*
X10691476Y-15863714D01*
X10691476Y-15863714D02*
X10710524Y-15873238D01*
X10710524Y-15873238D02*
X10720048Y-15882762D01*
X10720048Y-15882762D02*
X10729571Y-15901809D01*
X10729571Y-15901809D02*
X10729571Y-15949428D01*
X10729571Y-15949428D02*
X10720048Y-15968476D01*
X10720048Y-15968476D02*
X10710524Y-15978000D01*
X10710524Y-15978000D02*
X10691476Y-15987524D01*
X10691476Y-15987524D02*
X10643857Y-15987524D01*
X10643857Y-15987524D02*
X10624810Y-15978000D01*
X10624810Y-15978000D02*
X10615286Y-15968476D01*
X10853381Y-15787524D02*
X10872429Y-15787524D01*
X10872429Y-15787524D02*
X10891476Y-15797048D01*
X10891476Y-15797048D02*
X10901000Y-15806571D01*
X10901000Y-15806571D02*
X10910524Y-15825619D01*
X10910524Y-15825619D02*
X10920048Y-15863714D01*
X10920048Y-15863714D02*
X10920048Y-15911333D01*
X10920048Y-15911333D02*
X10910524Y-15949428D01*
X10910524Y-15949428D02*
X10901000Y-15968476D01*
X10901000Y-15968476D02*
X10891476Y-15978000D01*
X10891476Y-15978000D02*
X10872429Y-15987524D01*
X10872429Y-15987524D02*
X10853381Y-15987524D01*
X10853381Y-15987524D02*
X10834333Y-15978000D01*
X10834333Y-15978000D02*
X10824810Y-15968476D01*
X10824810Y-15968476D02*
X10815286Y-15949428D01*
X10815286Y-15949428D02*
X10805762Y-15911333D01*
X10805762Y-15911333D02*
X10805762Y-15863714D01*
X10805762Y-15863714D02*
X10815286Y-15825619D01*
X10815286Y-15825619D02*
X10824810Y-15806571D01*
X10824810Y-15806571D02*
X10834333Y-15797048D01*
X10834333Y-15797048D02*
X10853381Y-15787524D01*
X11005762Y-15987524D02*
X11005762Y-15854190D01*
X11005762Y-15873238D02*
X11015286Y-15863714D01*
X11015286Y-15863714D02*
X11034333Y-15854190D01*
X11034333Y-15854190D02*
X11062905Y-15854190D01*
X11062905Y-15854190D02*
X11081952Y-15863714D01*
X11081952Y-15863714D02*
X11091476Y-15882762D01*
X11091476Y-15882762D02*
X11091476Y-15987524D01*
X11091476Y-15882762D02*
X11101000Y-15863714D01*
X11101000Y-15863714D02*
X11120048Y-15854190D01*
X11120048Y-15854190D02*
X11148619Y-15854190D01*
X11148619Y-15854190D02*
X11167667Y-15863714D01*
X11167667Y-15863714D02*
X11177191Y-15882762D01*
X11177191Y-15882762D02*
X11177191Y-15987524D01*
X11272429Y-15987524D02*
X11272429Y-15854190D01*
X11272429Y-15873238D02*
X11281952Y-15863714D01*
X11281952Y-15863714D02*
X11301000Y-15854190D01*
X11301000Y-15854190D02*
X11329571Y-15854190D01*
X11329571Y-15854190D02*
X11348619Y-15863714D01*
X11348619Y-15863714D02*
X11358143Y-15882762D01*
X11358143Y-15882762D02*
X11358143Y-15987524D01*
X11358143Y-15882762D02*
X11367667Y-15863714D01*
X11367667Y-15863714D02*
X11386714Y-15854190D01*
X11386714Y-15854190D02*
X11415286Y-15854190D01*
X11415286Y-15854190D02*
X11434333Y-15863714D01*
X11434333Y-15863714D02*
X11443857Y-15882762D01*
X11443857Y-15882762D02*
X11443857Y-15987524D01*
X11834333Y-15778000D02*
X11662905Y-16035143D01*
X12091476Y-15787524D02*
X12110524Y-15787524D01*
X12110524Y-15787524D02*
X12129572Y-15797048D01*
X12129572Y-15797048D02*
X12139095Y-15806571D01*
X12139095Y-15806571D02*
X12148619Y-15825619D01*
X12148619Y-15825619D02*
X12158143Y-15863714D01*
X12158143Y-15863714D02*
X12158143Y-15911333D01*
X12158143Y-15911333D02*
X12148619Y-15949428D01*
X12148619Y-15949428D02*
X12139095Y-15968476D01*
X12139095Y-15968476D02*
X12129572Y-15978000D01*
X12129572Y-15978000D02*
X12110524Y-15987524D01*
X12110524Y-15987524D02*
X12091476Y-15987524D01*
X12091476Y-15987524D02*
X12072429Y-15978000D01*
X12072429Y-15978000D02*
X12062905Y-15968476D01*
X12062905Y-15968476D02*
X12053381Y-15949428D01*
X12053381Y-15949428D02*
X12043857Y-15911333D01*
X12043857Y-15911333D02*
X12043857Y-15863714D01*
X12043857Y-15863714D02*
X12053381Y-15825619D01*
X12053381Y-15825619D02*
X12062905Y-15806571D01*
X12062905Y-15806571D02*
X12072429Y-15797048D01*
X12072429Y-15797048D02*
X12091476Y-15787524D01*
X12243857Y-15968476D02*
X12253381Y-15978000D01*
X12253381Y-15978000D02*
X12243857Y-15987524D01*
X12243857Y-15987524D02*
X12234333Y-15978000D01*
X12234333Y-15978000D02*
X12243857Y-15968476D01*
X12243857Y-15968476D02*
X12243857Y-15987524D01*
X12377191Y-15787524D02*
X12396238Y-15787524D01*
X12396238Y-15787524D02*
X12415286Y-15797048D01*
X12415286Y-15797048D02*
X12424810Y-15806571D01*
X12424810Y-15806571D02*
X12434333Y-15825619D01*
X12434333Y-15825619D02*
X12443857Y-15863714D01*
X12443857Y-15863714D02*
X12443857Y-15911333D01*
X12443857Y-15911333D02*
X12434333Y-15949428D01*
X12434333Y-15949428D02*
X12424810Y-15968476D01*
X12424810Y-15968476D02*
X12415286Y-15978000D01*
X12415286Y-15978000D02*
X12396238Y-15987524D01*
X12396238Y-15987524D02*
X12377191Y-15987524D01*
X12377191Y-15987524D02*
X12358143Y-15978000D01*
X12358143Y-15978000D02*
X12348619Y-15968476D01*
X12348619Y-15968476D02*
X12339095Y-15949428D01*
X12339095Y-15949428D02*
X12329572Y-15911333D01*
X12329572Y-15911333D02*
X12329572Y-15863714D01*
X12329572Y-15863714D02*
X12339095Y-15825619D01*
X12339095Y-15825619D02*
X12348619Y-15806571D01*
X12348619Y-15806571D02*
X12358143Y-15797048D01*
X12358143Y-15797048D02*
X12377191Y-15787524D01*
X12510524Y-15787524D02*
X12634333Y-15787524D01*
X12634333Y-15787524D02*
X12567667Y-15863714D01*
X12567667Y-15863714D02*
X12596238Y-15863714D01*
X12596238Y-15863714D02*
X12615286Y-15873238D01*
X12615286Y-15873238D02*
X12624810Y-15882762D01*
X12624810Y-15882762D02*
X12634333Y-15901809D01*
X12634333Y-15901809D02*
X12634333Y-15949428D01*
X12634333Y-15949428D02*
X12624810Y-15968476D01*
X12624810Y-15968476D02*
X12615286Y-15978000D01*
X12615286Y-15978000D02*
X12596238Y-15987524D01*
X12596238Y-15987524D02*
X12539095Y-15987524D01*
X12539095Y-15987524D02*
X12520048Y-15978000D01*
X12520048Y-15978000D02*
X12510524Y-15968476D01*
X12701000Y-15787524D02*
X12834333Y-15787524D01*
X12834333Y-15787524D02*
X12748619Y-15987524D01*
X12996238Y-15854190D02*
X12996238Y-15987524D01*
X12948619Y-15778000D02*
X12901000Y-15920857D01*
X12901000Y-15920857D02*
X13024810Y-15920857D01*
X13091476Y-15787524D02*
X13091476Y-15825619D01*
X13167667Y-15787524D02*
X13167667Y-15825619D01*
X13462905Y-16063714D02*
X13453381Y-16054190D01*
X13453381Y-16054190D02*
X13434334Y-16025619D01*
X13434334Y-16025619D02*
X13424810Y-16006571D01*
X13424810Y-16006571D02*
X13415286Y-15978000D01*
X13415286Y-15978000D02*
X13405762Y-15930381D01*
X13405762Y-15930381D02*
X13405762Y-15892286D01*
X13405762Y-15892286D02*
X13415286Y-15844667D01*
X13415286Y-15844667D02*
X13424810Y-15816095D01*
X13424810Y-15816095D02*
X13434334Y-15797048D01*
X13434334Y-15797048D02*
X13453381Y-15768476D01*
X13453381Y-15768476D02*
X13462905Y-15758952D01*
X13529572Y-15806571D02*
X13539095Y-15797048D01*
X13539095Y-15797048D02*
X13558143Y-15787524D01*
X13558143Y-15787524D02*
X13605762Y-15787524D01*
X13605762Y-15787524D02*
X13624810Y-15797048D01*
X13624810Y-15797048D02*
X13634334Y-15806571D01*
X13634334Y-15806571D02*
X13643857Y-15825619D01*
X13643857Y-15825619D02*
X13643857Y-15844667D01*
X13643857Y-15844667D02*
X13634334Y-15873238D01*
X13634334Y-15873238D02*
X13520048Y-15987524D01*
X13520048Y-15987524D02*
X13643857Y-15987524D01*
X13815286Y-15854190D02*
X13815286Y-15987524D01*
X13767667Y-15778000D02*
X13720048Y-15920857D01*
X13720048Y-15920857D02*
X13843857Y-15920857D01*
X14072429Y-15987524D02*
X14072429Y-15787524D01*
X14158143Y-15987524D02*
X14158143Y-15882762D01*
X14158143Y-15882762D02*
X14148619Y-15863714D01*
X14148619Y-15863714D02*
X14129572Y-15854190D01*
X14129572Y-15854190D02*
X14101000Y-15854190D01*
X14101000Y-15854190D02*
X14081953Y-15863714D01*
X14081953Y-15863714D02*
X14072429Y-15873238D01*
X14281953Y-15987524D02*
X14262905Y-15978000D01*
X14262905Y-15978000D02*
X14253381Y-15968476D01*
X14253381Y-15968476D02*
X14243857Y-15949428D01*
X14243857Y-15949428D02*
X14243857Y-15892286D01*
X14243857Y-15892286D02*
X14253381Y-15873238D01*
X14253381Y-15873238D02*
X14262905Y-15863714D01*
X14262905Y-15863714D02*
X14281953Y-15854190D01*
X14281953Y-15854190D02*
X14310524Y-15854190D01*
X14310524Y-15854190D02*
X14329572Y-15863714D01*
X14329572Y-15863714D02*
X14339096Y-15873238D01*
X14339096Y-15873238D02*
X14348619Y-15892286D01*
X14348619Y-15892286D02*
X14348619Y-15949428D01*
X14348619Y-15949428D02*
X14339096Y-15968476D01*
X14339096Y-15968476D02*
X14329572Y-15978000D01*
X14329572Y-15978000D02*
X14310524Y-15987524D01*
X14310524Y-15987524D02*
X14281953Y-15987524D01*
X14462905Y-15987524D02*
X14443857Y-15978000D01*
X14443857Y-15978000D02*
X14434334Y-15958952D01*
X14434334Y-15958952D02*
X14434334Y-15787524D01*
X14615286Y-15978000D02*
X14596238Y-15987524D01*
X14596238Y-15987524D02*
X14558143Y-15987524D01*
X14558143Y-15987524D02*
X14539096Y-15978000D01*
X14539096Y-15978000D02*
X14529572Y-15958952D01*
X14529572Y-15958952D02*
X14529572Y-15882762D01*
X14529572Y-15882762D02*
X14539096Y-15863714D01*
X14539096Y-15863714D02*
X14558143Y-15854190D01*
X14558143Y-15854190D02*
X14596238Y-15854190D01*
X14596238Y-15854190D02*
X14615286Y-15863714D01*
X14615286Y-15863714D02*
X14624810Y-15882762D01*
X14624810Y-15882762D02*
X14624810Y-15901809D01*
X14624810Y-15901809D02*
X14529572Y-15920857D01*
X14701000Y-15978000D02*
X14720048Y-15987524D01*
X14720048Y-15987524D02*
X14758143Y-15987524D01*
X14758143Y-15987524D02*
X14777191Y-15978000D01*
X14777191Y-15978000D02*
X14786715Y-15958952D01*
X14786715Y-15958952D02*
X14786715Y-15949428D01*
X14786715Y-15949428D02*
X14777191Y-15930381D01*
X14777191Y-15930381D02*
X14758143Y-15920857D01*
X14758143Y-15920857D02*
X14729572Y-15920857D01*
X14729572Y-15920857D02*
X14710524Y-15911333D01*
X14710524Y-15911333D02*
X14701000Y-15892286D01*
X14701000Y-15892286D02*
X14701000Y-15882762D01*
X14701000Y-15882762D02*
X14710524Y-15863714D01*
X14710524Y-15863714D02*
X14729572Y-15854190D01*
X14729572Y-15854190D02*
X14758143Y-15854190D01*
X14758143Y-15854190D02*
X14777191Y-15863714D01*
X14853381Y-16063714D02*
X14862905Y-16054190D01*
X14862905Y-16054190D02*
X14881953Y-16025619D01*
X14881953Y-16025619D02*
X14891477Y-16006571D01*
X14891477Y-16006571D02*
X14901000Y-15978000D01*
X14901000Y-15978000D02*
X14910524Y-15930381D01*
X14910524Y-15930381D02*
X14910524Y-15892286D01*
X14910524Y-15892286D02*
X14901000Y-15844667D01*
X14901000Y-15844667D02*
X14891477Y-15816095D01*
X14891477Y-15816095D02*
X14881953Y-15797048D01*
X14881953Y-15797048D02*
X14862905Y-15768476D01*
X14862905Y-15768476D02*
X14853381Y-15758952D01*
D10*
X9851000Y-16109000D02*
X9851000Y-16209000D01*
X9801000Y-16159000D02*
X9901000Y-16159000D01*
D11*
X10253381Y-16251524D02*
X10139095Y-16251524D01*
X10196238Y-16251524D02*
X10196238Y-16051524D01*
X10196238Y-16051524D02*
X10177190Y-16080095D01*
X10177190Y-16080095D02*
X10158143Y-16099143D01*
X10158143Y-16099143D02*
X10139095Y-16108667D01*
X10339095Y-16232476D02*
X10348619Y-16242000D01*
X10348619Y-16242000D02*
X10339095Y-16251524D01*
X10339095Y-16251524D02*
X10329571Y-16242000D01*
X10329571Y-16242000D02*
X10339095Y-16232476D01*
X10339095Y-16232476D02*
X10339095Y-16251524D01*
X10472429Y-16051524D02*
X10491476Y-16051524D01*
X10491476Y-16051524D02*
X10510524Y-16061048D01*
X10510524Y-16061048D02*
X10520048Y-16070571D01*
X10520048Y-16070571D02*
X10529571Y-16089619D01*
X10529571Y-16089619D02*
X10539095Y-16127714D01*
X10539095Y-16127714D02*
X10539095Y-16175333D01*
X10539095Y-16175333D02*
X10529571Y-16213428D01*
X10529571Y-16213428D02*
X10520048Y-16232476D01*
X10520048Y-16232476D02*
X10510524Y-16242000D01*
X10510524Y-16242000D02*
X10491476Y-16251524D01*
X10491476Y-16251524D02*
X10472429Y-16251524D01*
X10472429Y-16251524D02*
X10453381Y-16242000D01*
X10453381Y-16242000D02*
X10443857Y-16232476D01*
X10443857Y-16232476D02*
X10434333Y-16213428D01*
X10434333Y-16213428D02*
X10424810Y-16175333D01*
X10424810Y-16175333D02*
X10424810Y-16127714D01*
X10424810Y-16127714D02*
X10434333Y-16089619D01*
X10434333Y-16089619D02*
X10443857Y-16070571D01*
X10443857Y-16070571D02*
X10453381Y-16061048D01*
X10453381Y-16061048D02*
X10472429Y-16051524D01*
X10662905Y-16051524D02*
X10681952Y-16051524D01*
X10681952Y-16051524D02*
X10701000Y-16061048D01*
X10701000Y-16061048D02*
X10710524Y-16070571D01*
X10710524Y-16070571D02*
X10720048Y-16089619D01*
X10720048Y-16089619D02*
X10729571Y-16127714D01*
X10729571Y-16127714D02*
X10729571Y-16175333D01*
X10729571Y-16175333D02*
X10720048Y-16213428D01*
X10720048Y-16213428D02*
X10710524Y-16232476D01*
X10710524Y-16232476D02*
X10701000Y-16242000D01*
X10701000Y-16242000D02*
X10681952Y-16251524D01*
X10681952Y-16251524D02*
X10662905Y-16251524D01*
X10662905Y-16251524D02*
X10643857Y-16242000D01*
X10643857Y-16242000D02*
X10634333Y-16232476D01*
X10634333Y-16232476D02*
X10624810Y-16213428D01*
X10624810Y-16213428D02*
X10615286Y-16175333D01*
X10615286Y-16175333D02*
X10615286Y-16127714D01*
X10615286Y-16127714D02*
X10624810Y-16089619D01*
X10624810Y-16089619D02*
X10634333Y-16070571D01*
X10634333Y-16070571D02*
X10643857Y-16061048D01*
X10643857Y-16061048D02*
X10662905Y-16051524D01*
X10853381Y-16051524D02*
X10872429Y-16051524D01*
X10872429Y-16051524D02*
X10891476Y-16061048D01*
X10891476Y-16061048D02*
X10901000Y-16070571D01*
X10901000Y-16070571D02*
X10910524Y-16089619D01*
X10910524Y-16089619D02*
X10920048Y-16127714D01*
X10920048Y-16127714D02*
X10920048Y-16175333D01*
X10920048Y-16175333D02*
X10910524Y-16213428D01*
X10910524Y-16213428D02*
X10901000Y-16232476D01*
X10901000Y-16232476D02*
X10891476Y-16242000D01*
X10891476Y-16242000D02*
X10872429Y-16251524D01*
X10872429Y-16251524D02*
X10853381Y-16251524D01*
X10853381Y-16251524D02*
X10834333Y-16242000D01*
X10834333Y-16242000D02*
X10824810Y-16232476D01*
X10824810Y-16232476D02*
X10815286Y-16213428D01*
X10815286Y-16213428D02*
X10805762Y-16175333D01*
X10805762Y-16175333D02*
X10805762Y-16127714D01*
X10805762Y-16127714D02*
X10815286Y-16089619D01*
X10815286Y-16089619D02*
X10824810Y-16070571D01*
X10824810Y-16070571D02*
X10834333Y-16061048D01*
X10834333Y-16061048D02*
X10853381Y-16051524D01*
X11005762Y-16251524D02*
X11005762Y-16118190D01*
X11005762Y-16137238D02*
X11015286Y-16127714D01*
X11015286Y-16127714D02*
X11034333Y-16118190D01*
X11034333Y-16118190D02*
X11062905Y-16118190D01*
X11062905Y-16118190D02*
X11081952Y-16127714D01*
X11081952Y-16127714D02*
X11091476Y-16146762D01*
X11091476Y-16146762D02*
X11091476Y-16251524D01*
X11091476Y-16146762D02*
X11101000Y-16127714D01*
X11101000Y-16127714D02*
X11120048Y-16118190D01*
X11120048Y-16118190D02*
X11148619Y-16118190D01*
X11148619Y-16118190D02*
X11167667Y-16127714D01*
X11167667Y-16127714D02*
X11177191Y-16146762D01*
X11177191Y-16146762D02*
X11177191Y-16251524D01*
X11272429Y-16251524D02*
X11272429Y-16118190D01*
X11272429Y-16137238D02*
X11281952Y-16127714D01*
X11281952Y-16127714D02*
X11301000Y-16118190D01*
X11301000Y-16118190D02*
X11329571Y-16118190D01*
X11329571Y-16118190D02*
X11348619Y-16127714D01*
X11348619Y-16127714D02*
X11358143Y-16146762D01*
X11358143Y-16146762D02*
X11358143Y-16251524D01*
X11358143Y-16146762D02*
X11367667Y-16127714D01*
X11367667Y-16127714D02*
X11386714Y-16118190D01*
X11386714Y-16118190D02*
X11415286Y-16118190D01*
X11415286Y-16118190D02*
X11434333Y-16127714D01*
X11434333Y-16127714D02*
X11443857Y-16146762D01*
X11443857Y-16146762D02*
X11443857Y-16251524D01*
X11834333Y-16042000D02*
X11662905Y-16299143D01*
X12091476Y-16051524D02*
X12110524Y-16051524D01*
X12110524Y-16051524D02*
X12129572Y-16061048D01*
X12129572Y-16061048D02*
X12139095Y-16070571D01*
X12139095Y-16070571D02*
X12148619Y-16089619D01*
X12148619Y-16089619D02*
X12158143Y-16127714D01*
X12158143Y-16127714D02*
X12158143Y-16175333D01*
X12158143Y-16175333D02*
X12148619Y-16213428D01*
X12148619Y-16213428D02*
X12139095Y-16232476D01*
X12139095Y-16232476D02*
X12129572Y-16242000D01*
X12129572Y-16242000D02*
X12110524Y-16251524D01*
X12110524Y-16251524D02*
X12091476Y-16251524D01*
X12091476Y-16251524D02*
X12072429Y-16242000D01*
X12072429Y-16242000D02*
X12062905Y-16232476D01*
X12062905Y-16232476D02*
X12053381Y-16213428D01*
X12053381Y-16213428D02*
X12043857Y-16175333D01*
X12043857Y-16175333D02*
X12043857Y-16127714D01*
X12043857Y-16127714D02*
X12053381Y-16089619D01*
X12053381Y-16089619D02*
X12062905Y-16070571D01*
X12062905Y-16070571D02*
X12072429Y-16061048D01*
X12072429Y-16061048D02*
X12091476Y-16051524D01*
X12243857Y-16232476D02*
X12253381Y-16242000D01*
X12253381Y-16242000D02*
X12243857Y-16251524D01*
X12243857Y-16251524D02*
X12234333Y-16242000D01*
X12234333Y-16242000D02*
X12243857Y-16232476D01*
X12243857Y-16232476D02*
X12243857Y-16251524D01*
X12377191Y-16051524D02*
X12396238Y-16051524D01*
X12396238Y-16051524D02*
X12415286Y-16061048D01*
X12415286Y-16061048D02*
X12424810Y-16070571D01*
X12424810Y-16070571D02*
X12434333Y-16089619D01*
X12434333Y-16089619D02*
X12443857Y-16127714D01*
X12443857Y-16127714D02*
X12443857Y-16175333D01*
X12443857Y-16175333D02*
X12434333Y-16213428D01*
X12434333Y-16213428D02*
X12424810Y-16232476D01*
X12424810Y-16232476D02*
X12415286Y-16242000D01*
X12415286Y-16242000D02*
X12396238Y-16251524D01*
X12396238Y-16251524D02*
X12377191Y-16251524D01*
X12377191Y-16251524D02*
X12358143Y-16242000D01*
X12358143Y-16242000D02*
X12348619Y-16232476D01*
X12348619Y-16232476D02*
X12339095Y-16213428D01*
X12339095Y-16213428D02*
X12329572Y-16175333D01*
X12329572Y-16175333D02*
X12329572Y-16127714D01*
X12329572Y-16127714D02*
X12339095Y-16089619D01*
X12339095Y-16089619D02*
X12348619Y-16070571D01*
X12348619Y-16070571D02*
X12358143Y-16061048D01*
X12358143Y-16061048D02*
X12377191Y-16051524D01*
X12510524Y-16051524D02*
X12634333Y-16051524D01*
X12634333Y-16051524D02*
X12567667Y-16127714D01*
X12567667Y-16127714D02*
X12596238Y-16127714D01*
X12596238Y-16127714D02*
X12615286Y-16137238D01*
X12615286Y-16137238D02*
X12624810Y-16146762D01*
X12624810Y-16146762D02*
X12634333Y-16165809D01*
X12634333Y-16165809D02*
X12634333Y-16213428D01*
X12634333Y-16213428D02*
X12624810Y-16232476D01*
X12624810Y-16232476D02*
X12615286Y-16242000D01*
X12615286Y-16242000D02*
X12596238Y-16251524D01*
X12596238Y-16251524D02*
X12539095Y-16251524D01*
X12539095Y-16251524D02*
X12520048Y-16242000D01*
X12520048Y-16242000D02*
X12510524Y-16232476D01*
X12729572Y-16251524D02*
X12767667Y-16251524D01*
X12767667Y-16251524D02*
X12786714Y-16242000D01*
X12786714Y-16242000D02*
X12796238Y-16232476D01*
X12796238Y-16232476D02*
X12815286Y-16203905D01*
X12815286Y-16203905D02*
X12824810Y-16165809D01*
X12824810Y-16165809D02*
X12824810Y-16089619D01*
X12824810Y-16089619D02*
X12815286Y-16070571D01*
X12815286Y-16070571D02*
X12805762Y-16061048D01*
X12805762Y-16061048D02*
X12786714Y-16051524D01*
X12786714Y-16051524D02*
X12748619Y-16051524D01*
X12748619Y-16051524D02*
X12729572Y-16061048D01*
X12729572Y-16061048D02*
X12720048Y-16070571D01*
X12720048Y-16070571D02*
X12710524Y-16089619D01*
X12710524Y-16089619D02*
X12710524Y-16137238D01*
X12710524Y-16137238D02*
X12720048Y-16156286D01*
X12720048Y-16156286D02*
X12729572Y-16165809D01*
X12729572Y-16165809D02*
X12748619Y-16175333D01*
X12748619Y-16175333D02*
X12786714Y-16175333D01*
X12786714Y-16175333D02*
X12805762Y-16165809D01*
X12805762Y-16165809D02*
X12815286Y-16156286D01*
X12815286Y-16156286D02*
X12824810Y-16137238D01*
X12996238Y-16118190D02*
X12996238Y-16251524D01*
X12948619Y-16042000D02*
X12901000Y-16184857D01*
X12901000Y-16184857D02*
X13024810Y-16184857D01*
X13091476Y-16051524D02*
X13091476Y-16089619D01*
X13167667Y-16051524D02*
X13167667Y-16089619D01*
X13462905Y-16327714D02*
X13453381Y-16318190D01*
X13453381Y-16318190D02*
X13434334Y-16289619D01*
X13434334Y-16289619D02*
X13424810Y-16270571D01*
X13424810Y-16270571D02*
X13415286Y-16242000D01*
X13415286Y-16242000D02*
X13405762Y-16194381D01*
X13405762Y-16194381D02*
X13405762Y-16156286D01*
X13405762Y-16156286D02*
X13415286Y-16108667D01*
X13415286Y-16108667D02*
X13424810Y-16080095D01*
X13424810Y-16080095D02*
X13434334Y-16061048D01*
X13434334Y-16061048D02*
X13453381Y-16032476D01*
X13453381Y-16032476D02*
X13462905Y-16022952D01*
X13520048Y-16051524D02*
X13653381Y-16051524D01*
X13653381Y-16051524D02*
X13567667Y-16251524D01*
X13720048Y-16070571D02*
X13729572Y-16061048D01*
X13729572Y-16061048D02*
X13748619Y-16051524D01*
X13748619Y-16051524D02*
X13796238Y-16051524D01*
X13796238Y-16051524D02*
X13815286Y-16061048D01*
X13815286Y-16061048D02*
X13824810Y-16070571D01*
X13824810Y-16070571D02*
X13834334Y-16089619D01*
X13834334Y-16089619D02*
X13834334Y-16108667D01*
X13834334Y-16108667D02*
X13824810Y-16137238D01*
X13824810Y-16137238D02*
X13710524Y-16251524D01*
X13710524Y-16251524D02*
X13834334Y-16251524D01*
X14072429Y-16251524D02*
X14072429Y-16051524D01*
X14158143Y-16251524D02*
X14158143Y-16146762D01*
X14158143Y-16146762D02*
X14148619Y-16127714D01*
X14148619Y-16127714D02*
X14129572Y-16118190D01*
X14129572Y-16118190D02*
X14101000Y-16118190D01*
X14101000Y-16118190D02*
X14081953Y-16127714D01*
X14081953Y-16127714D02*
X14072429Y-16137238D01*
X14281953Y-16251524D02*
X14262905Y-16242000D01*
X14262905Y-16242000D02*
X14253381Y-16232476D01*
X14253381Y-16232476D02*
X14243857Y-16213428D01*
X14243857Y-16213428D02*
X14243857Y-16156286D01*
X14243857Y-16156286D02*
X14253381Y-16137238D01*
X14253381Y-16137238D02*
X14262905Y-16127714D01*
X14262905Y-16127714D02*
X14281953Y-16118190D01*
X14281953Y-16118190D02*
X14310524Y-16118190D01*
X14310524Y-16118190D02*
X14329572Y-16127714D01*
X14329572Y-16127714D02*
X14339096Y-16137238D01*
X14339096Y-16137238D02*
X14348619Y-16156286D01*
X14348619Y-16156286D02*
X14348619Y-16213428D01*
X14348619Y-16213428D02*
X14339096Y-16232476D01*
X14339096Y-16232476D02*
X14329572Y-16242000D01*
X14329572Y-16242000D02*
X14310524Y-16251524D01*
X14310524Y-16251524D02*
X14281953Y-16251524D01*
X14462905Y-16251524D02*
X14443857Y-16242000D01*
X14443857Y-16242000D02*
X14434334Y-16222952D01*
X14434334Y-16222952D02*
X14434334Y-16051524D01*
X14615286Y-16242000D02*
X14596238Y-16251524D01*
X14596238Y-16251524D02*
X14558143Y-16251524D01*
X14558143Y-16251524D02*
X14539096Y-16242000D01*
X14539096Y-16242000D02*
X14529572Y-16222952D01*
X14529572Y-16222952D02*
X14529572Y-16146762D01*
X14529572Y-16146762D02*
X14539096Y-16127714D01*
X14539096Y-16127714D02*
X14558143Y-16118190D01*
X14558143Y-16118190D02*
X14596238Y-16118190D01*
X14596238Y-16118190D02*
X14615286Y-16127714D01*
X14615286Y-16127714D02*
X14624810Y-16146762D01*
X14624810Y-16146762D02*
X14624810Y-16165809D01*
X14624810Y-16165809D02*
X14529572Y-16184857D01*
X14701000Y-16242000D02*
X14720048Y-16251524D01*
X14720048Y-16251524D02*
X14758143Y-16251524D01*
X14758143Y-16251524D02*
X14777191Y-16242000D01*
X14777191Y-16242000D02*
X14786715Y-16222952D01*
X14786715Y-16222952D02*
X14786715Y-16213428D01*
X14786715Y-16213428D02*
X14777191Y-16194381D01*
X14777191Y-16194381D02*
X14758143Y-16184857D01*
X14758143Y-16184857D02*
X14729572Y-16184857D01*
X14729572Y-16184857D02*
X14710524Y-16175333D01*
X14710524Y-16175333D02*
X14701000Y-16156286D01*
X14701000Y-16156286D02*
X14701000Y-16146762D01*
X14701000Y-16146762D02*
X14710524Y-16127714D01*
X14710524Y-16127714D02*
X14729572Y-16118190D01*
X14729572Y-16118190D02*
X14758143Y-16118190D01*
X14758143Y-16118190D02*
X14777191Y-16127714D01*
X14853381Y-16327714D02*
X14862905Y-16318190D01*
X14862905Y-16318190D02*
X14881953Y-16289619D01*
X14881953Y-16289619D02*
X14891477Y-16270571D01*
X14891477Y-16270571D02*
X14901000Y-16242000D01*
X14901000Y-16242000D02*
X14910524Y-16194381D01*
X14910524Y-16194381D02*
X14910524Y-16156286D01*
X14910524Y-16156286D02*
X14901000Y-16108667D01*
X14901000Y-16108667D02*
X14891477Y-16080095D01*
X14891477Y-16080095D02*
X14881953Y-16061048D01*
X14881953Y-16061048D02*
X14862905Y-16032476D01*
X14862905Y-16032476D02*
X14853381Y-16022952D01*
X9871711Y-16493711D02*
X9871711Y-16352289D01*
X9730289Y-16352289D01*
X9730289Y-16493711D01*
X9871711Y-16493711D01*
X10234333Y-16382190D02*
X10234333Y-16515524D01*
X10186714Y-16306000D02*
X10139095Y-16448857D01*
X10139095Y-16448857D02*
X10262905Y-16448857D01*
X10339095Y-16496476D02*
X10348619Y-16506000D01*
X10348619Y-16506000D02*
X10339095Y-16515524D01*
X10339095Y-16515524D02*
X10329571Y-16506000D01*
X10329571Y-16506000D02*
X10339095Y-16496476D01*
X10339095Y-16496476D02*
X10339095Y-16515524D01*
X10529571Y-16315524D02*
X10434333Y-16315524D01*
X10434333Y-16315524D02*
X10424810Y-16410762D01*
X10424810Y-16410762D02*
X10434333Y-16401238D01*
X10434333Y-16401238D02*
X10453381Y-16391714D01*
X10453381Y-16391714D02*
X10501000Y-16391714D01*
X10501000Y-16391714D02*
X10520048Y-16401238D01*
X10520048Y-16401238D02*
X10529571Y-16410762D01*
X10529571Y-16410762D02*
X10539095Y-16429809D01*
X10539095Y-16429809D02*
X10539095Y-16477428D01*
X10539095Y-16477428D02*
X10529571Y-16496476D01*
X10529571Y-16496476D02*
X10520048Y-16506000D01*
X10520048Y-16506000D02*
X10501000Y-16515524D01*
X10501000Y-16515524D02*
X10453381Y-16515524D01*
X10453381Y-16515524D02*
X10434333Y-16506000D01*
X10434333Y-16506000D02*
X10424810Y-16496476D01*
X10662905Y-16315524D02*
X10681952Y-16315524D01*
X10681952Y-16315524D02*
X10701000Y-16325048D01*
X10701000Y-16325048D02*
X10710524Y-16334571D01*
X10710524Y-16334571D02*
X10720048Y-16353619D01*
X10720048Y-16353619D02*
X10729571Y-16391714D01*
X10729571Y-16391714D02*
X10729571Y-16439333D01*
X10729571Y-16439333D02*
X10720048Y-16477428D01*
X10720048Y-16477428D02*
X10710524Y-16496476D01*
X10710524Y-16496476D02*
X10701000Y-16506000D01*
X10701000Y-16506000D02*
X10681952Y-16515524D01*
X10681952Y-16515524D02*
X10662905Y-16515524D01*
X10662905Y-16515524D02*
X10643857Y-16506000D01*
X10643857Y-16506000D02*
X10634333Y-16496476D01*
X10634333Y-16496476D02*
X10624810Y-16477428D01*
X10624810Y-16477428D02*
X10615286Y-16439333D01*
X10615286Y-16439333D02*
X10615286Y-16391714D01*
X10615286Y-16391714D02*
X10624810Y-16353619D01*
X10624810Y-16353619D02*
X10634333Y-16334571D01*
X10634333Y-16334571D02*
X10643857Y-16325048D01*
X10643857Y-16325048D02*
X10662905Y-16315524D01*
X10853381Y-16315524D02*
X10872429Y-16315524D01*
X10872429Y-16315524D02*
X10891476Y-16325048D01*
X10891476Y-16325048D02*
X10901000Y-16334571D01*
X10901000Y-16334571D02*
X10910524Y-16353619D01*
X10910524Y-16353619D02*
X10920048Y-16391714D01*
X10920048Y-16391714D02*
X10920048Y-16439333D01*
X10920048Y-16439333D02*
X10910524Y-16477428D01*
X10910524Y-16477428D02*
X10901000Y-16496476D01*
X10901000Y-16496476D02*
X10891476Y-16506000D01*
X10891476Y-16506000D02*
X10872429Y-16515524D01*
X10872429Y-16515524D02*
X10853381Y-16515524D01*
X10853381Y-16515524D02*
X10834333Y-16506000D01*
X10834333Y-16506000D02*
X10824810Y-16496476D01*
X10824810Y-16496476D02*
X10815286Y-16477428D01*
X10815286Y-16477428D02*
X10805762Y-16439333D01*
X10805762Y-16439333D02*
X10805762Y-16391714D01*
X10805762Y-16391714D02*
X10815286Y-16353619D01*
X10815286Y-16353619D02*
X10824810Y-16334571D01*
X10824810Y-16334571D02*
X10834333Y-16325048D01*
X10834333Y-16325048D02*
X10853381Y-16315524D01*
X11005762Y-16515524D02*
X11005762Y-16382190D01*
X11005762Y-16401238D02*
X11015286Y-16391714D01*
X11015286Y-16391714D02*
X11034333Y-16382190D01*
X11034333Y-16382190D02*
X11062905Y-16382190D01*
X11062905Y-16382190D02*
X11081952Y-16391714D01*
X11081952Y-16391714D02*
X11091476Y-16410762D01*
X11091476Y-16410762D02*
X11091476Y-16515524D01*
X11091476Y-16410762D02*
X11101000Y-16391714D01*
X11101000Y-16391714D02*
X11120048Y-16382190D01*
X11120048Y-16382190D02*
X11148619Y-16382190D01*
X11148619Y-16382190D02*
X11167667Y-16391714D01*
X11167667Y-16391714D02*
X11177191Y-16410762D01*
X11177191Y-16410762D02*
X11177191Y-16515524D01*
X11272429Y-16515524D02*
X11272429Y-16382190D01*
X11272429Y-16401238D02*
X11281952Y-16391714D01*
X11281952Y-16391714D02*
X11301000Y-16382190D01*
X11301000Y-16382190D02*
X11329571Y-16382190D01*
X11329571Y-16382190D02*
X11348619Y-16391714D01*
X11348619Y-16391714D02*
X11358143Y-16410762D01*
X11358143Y-16410762D02*
X11358143Y-16515524D01*
X11358143Y-16410762D02*
X11367667Y-16391714D01*
X11367667Y-16391714D02*
X11386714Y-16382190D01*
X11386714Y-16382190D02*
X11415286Y-16382190D01*
X11415286Y-16382190D02*
X11434333Y-16391714D01*
X11434333Y-16391714D02*
X11443857Y-16410762D01*
X11443857Y-16410762D02*
X11443857Y-16515524D01*
X11834333Y-16306000D02*
X11662905Y-16563143D01*
X12091476Y-16315524D02*
X12110524Y-16315524D01*
X12110524Y-16315524D02*
X12129572Y-16325048D01*
X12129572Y-16325048D02*
X12139095Y-16334571D01*
X12139095Y-16334571D02*
X12148619Y-16353619D01*
X12148619Y-16353619D02*
X12158143Y-16391714D01*
X12158143Y-16391714D02*
X12158143Y-16439333D01*
X12158143Y-16439333D02*
X12148619Y-16477428D01*
X12148619Y-16477428D02*
X12139095Y-16496476D01*
X12139095Y-16496476D02*
X12129572Y-16506000D01*
X12129572Y-16506000D02*
X12110524Y-16515524D01*
X12110524Y-16515524D02*
X12091476Y-16515524D01*
X12091476Y-16515524D02*
X12072429Y-16506000D01*
X12072429Y-16506000D02*
X12062905Y-16496476D01*
X12062905Y-16496476D02*
X12053381Y-16477428D01*
X12053381Y-16477428D02*
X12043857Y-16439333D01*
X12043857Y-16439333D02*
X12043857Y-16391714D01*
X12043857Y-16391714D02*
X12053381Y-16353619D01*
X12053381Y-16353619D02*
X12062905Y-16334571D01*
X12062905Y-16334571D02*
X12072429Y-16325048D01*
X12072429Y-16325048D02*
X12091476Y-16315524D01*
X12243857Y-16496476D02*
X12253381Y-16506000D01*
X12253381Y-16506000D02*
X12243857Y-16515524D01*
X12243857Y-16515524D02*
X12234333Y-16506000D01*
X12234333Y-16506000D02*
X12243857Y-16496476D01*
X12243857Y-16496476D02*
X12243857Y-16515524D01*
X12443857Y-16515524D02*
X12329572Y-16515524D01*
X12386714Y-16515524D02*
X12386714Y-16315524D01*
X12386714Y-16315524D02*
X12367667Y-16344095D01*
X12367667Y-16344095D02*
X12348619Y-16363143D01*
X12348619Y-16363143D02*
X12329572Y-16372667D01*
X12510524Y-16315524D02*
X12643857Y-16315524D01*
X12643857Y-16315524D02*
X12558143Y-16515524D01*
X12701000Y-16315524D02*
X12834333Y-16315524D01*
X12834333Y-16315524D02*
X12748619Y-16515524D01*
X12901000Y-16334571D02*
X12910524Y-16325048D01*
X12910524Y-16325048D02*
X12929572Y-16315524D01*
X12929572Y-16315524D02*
X12977191Y-16315524D01*
X12977191Y-16315524D02*
X12996238Y-16325048D01*
X12996238Y-16325048D02*
X13005762Y-16334571D01*
X13005762Y-16334571D02*
X13015286Y-16353619D01*
X13015286Y-16353619D02*
X13015286Y-16372667D01*
X13015286Y-16372667D02*
X13005762Y-16401238D01*
X13005762Y-16401238D02*
X12891476Y-16515524D01*
X12891476Y-16515524D02*
X13015286Y-16515524D01*
X13091476Y-16315524D02*
X13091476Y-16353619D01*
X13167667Y-16315524D02*
X13167667Y-16353619D01*
X13462905Y-16591714D02*
X13453381Y-16582190D01*
X13453381Y-16582190D02*
X13434334Y-16553619D01*
X13434334Y-16553619D02*
X13424810Y-16534571D01*
X13424810Y-16534571D02*
X13415286Y-16506000D01*
X13415286Y-16506000D02*
X13405762Y-16458381D01*
X13405762Y-16458381D02*
X13405762Y-16420286D01*
X13405762Y-16420286D02*
X13415286Y-16372667D01*
X13415286Y-16372667D02*
X13424810Y-16344095D01*
X13424810Y-16344095D02*
X13434334Y-16325048D01*
X13434334Y-16325048D02*
X13453381Y-16296476D01*
X13453381Y-16296476D02*
X13462905Y-16286952D01*
X13529572Y-16334571D02*
X13539095Y-16325048D01*
X13539095Y-16325048D02*
X13558143Y-16315524D01*
X13558143Y-16315524D02*
X13605762Y-16315524D01*
X13605762Y-16315524D02*
X13624810Y-16325048D01*
X13624810Y-16325048D02*
X13634334Y-16334571D01*
X13634334Y-16334571D02*
X13643857Y-16353619D01*
X13643857Y-16353619D02*
X13643857Y-16372667D01*
X13643857Y-16372667D02*
X13634334Y-16401238D01*
X13634334Y-16401238D02*
X13520048Y-16515524D01*
X13520048Y-16515524D02*
X13643857Y-16515524D01*
X13881953Y-16515524D02*
X13881953Y-16315524D01*
X13967667Y-16515524D02*
X13967667Y-16410762D01*
X13967667Y-16410762D02*
X13958143Y-16391714D01*
X13958143Y-16391714D02*
X13939096Y-16382190D01*
X13939096Y-16382190D02*
X13910524Y-16382190D01*
X13910524Y-16382190D02*
X13891476Y-16391714D01*
X13891476Y-16391714D02*
X13881953Y-16401238D01*
X14091476Y-16515524D02*
X14072429Y-16506000D01*
X14072429Y-16506000D02*
X14062905Y-16496476D01*
X14062905Y-16496476D02*
X14053381Y-16477428D01*
X14053381Y-16477428D02*
X14053381Y-16420286D01*
X14053381Y-16420286D02*
X14062905Y-16401238D01*
X14062905Y-16401238D02*
X14072429Y-16391714D01*
X14072429Y-16391714D02*
X14091476Y-16382190D01*
X14091476Y-16382190D02*
X14120048Y-16382190D01*
X14120048Y-16382190D02*
X14139096Y-16391714D01*
X14139096Y-16391714D02*
X14148619Y-16401238D01*
X14148619Y-16401238D02*
X14158143Y-16420286D01*
X14158143Y-16420286D02*
X14158143Y-16477428D01*
X14158143Y-16477428D02*
X14148619Y-16496476D01*
X14148619Y-16496476D02*
X14139096Y-16506000D01*
X14139096Y-16506000D02*
X14120048Y-16515524D01*
X14120048Y-16515524D02*
X14091476Y-16515524D01*
X14272429Y-16515524D02*
X14253381Y-16506000D01*
X14253381Y-16506000D02*
X14243857Y-16486952D01*
X14243857Y-16486952D02*
X14243857Y-16315524D01*
X14424810Y-16506000D02*
X14405762Y-16515524D01*
X14405762Y-16515524D02*
X14367667Y-16515524D01*
X14367667Y-16515524D02*
X14348619Y-16506000D01*
X14348619Y-16506000D02*
X14339096Y-16486952D01*
X14339096Y-16486952D02*
X14339096Y-16410762D01*
X14339096Y-16410762D02*
X14348619Y-16391714D01*
X14348619Y-16391714D02*
X14367667Y-16382190D01*
X14367667Y-16382190D02*
X14405762Y-16382190D01*
X14405762Y-16382190D02*
X14424810Y-16391714D01*
X14424810Y-16391714D02*
X14434334Y-16410762D01*
X14434334Y-16410762D02*
X14434334Y-16429809D01*
X14434334Y-16429809D02*
X14339096Y-16448857D01*
X14510524Y-16506000D02*
X14529572Y-16515524D01*
X14529572Y-16515524D02*
X14567667Y-16515524D01*
X14567667Y-16515524D02*
X14586715Y-16506000D01*
X14586715Y-16506000D02*
X14596238Y-16486952D01*
X14596238Y-16486952D02*
X14596238Y-16477428D01*
X14596238Y-16477428D02*
X14586715Y-16458381D01*
X14586715Y-16458381D02*
X14567667Y-16448857D01*
X14567667Y-16448857D02*
X14539096Y-16448857D01*
X14539096Y-16448857D02*
X14520048Y-16439333D01*
X14520048Y-16439333D02*
X14510524Y-16420286D01*
X14510524Y-16420286D02*
X14510524Y-16410762D01*
X14510524Y-16410762D02*
X14520048Y-16391714D01*
X14520048Y-16391714D02*
X14539096Y-16382190D01*
X14539096Y-16382190D02*
X14567667Y-16382190D01*
X14567667Y-16382190D02*
X14586715Y-16391714D01*
X14662905Y-16591714D02*
X14672429Y-16582190D01*
X14672429Y-16582190D02*
X14691477Y-16553619D01*
X14691477Y-16553619D02*
X14701000Y-16534571D01*
X14701000Y-16534571D02*
X14710524Y-16506000D01*
X14710524Y-16506000D02*
X14720048Y-16458381D01*
X14720048Y-16458381D02*
X14720048Y-16420286D01*
X14720048Y-16420286D02*
X14710524Y-16372667D01*
X14710524Y-16372667D02*
X14701000Y-16344095D01*
X14701000Y-16344095D02*
X14691477Y-16325048D01*
X14691477Y-16325048D02*
X14672429Y-16296476D01*
X14672429Y-16296476D02*
X14662905Y-16286952D01*
M02*
