%TF.GenerationSoftware,KiCad,Pcbnew,7.0.1*%
%TF.CreationDate,2023-05-08T23:11:17+02:00*%
%TF.ProjectId,rockobot,726f636b-6f62-46f7-942e-6b696361645f,V1*%
%TF.SameCoordinates,Original*%
%TF.FileFunction,Drillmap*%
%TF.FilePolarity,Positive*%
%FSLAX45Y45*%
G04 Gerber Fmt 4.5, Leading zero omitted, Abs format (unit mm)*
G04 Created by KiCad (PCBNEW 7.0.1) date 2023-05-08 23:11:17*
%MOMM*%
%LPD*%
G01*
G04 APERTURE LIST*
%ADD10C,0.100000*%
%ADD11C,0.200000*%
G04 APERTURE END LIST*
D10*
X10442000Y-14605000D02*
G75*
G03*
X10442000Y-14605000I-155000J0D01*
G01*
X9906000Y-6096000D02*
X18796000Y-6096000D01*
X18796000Y-14986000D01*
X9906000Y-14986000D01*
X9906000Y-6096000D01*
X18570000Y-6477000D02*
G75*
G03*
X18570000Y-6477000I-155000J0D01*
G01*
X18570000Y-14605000D02*
G75*
G03*
X18570000Y-14605000I-155000J0D01*
G01*
X10442000Y-6477000D02*
G75*
G03*
X10442000Y-6477000I-155000J0D01*
G01*
D11*
X10148619Y-15303524D02*
X10148619Y-15103524D01*
X10148619Y-15103524D02*
X10196238Y-15103524D01*
X10196238Y-15103524D02*
X10224810Y-15113048D01*
X10224810Y-15113048D02*
X10243857Y-15132095D01*
X10243857Y-15132095D02*
X10253381Y-15151143D01*
X10253381Y-15151143D02*
X10262905Y-15189238D01*
X10262905Y-15189238D02*
X10262905Y-15217809D01*
X10262905Y-15217809D02*
X10253381Y-15255905D01*
X10253381Y-15255905D02*
X10243857Y-15274952D01*
X10243857Y-15274952D02*
X10224810Y-15294000D01*
X10224810Y-15294000D02*
X10196238Y-15303524D01*
X10196238Y-15303524D02*
X10148619Y-15303524D01*
X10348619Y-15303524D02*
X10348619Y-15170190D01*
X10348619Y-15208286D02*
X10358143Y-15189238D01*
X10358143Y-15189238D02*
X10367667Y-15179714D01*
X10367667Y-15179714D02*
X10386714Y-15170190D01*
X10386714Y-15170190D02*
X10405762Y-15170190D01*
X10472429Y-15303524D02*
X10472429Y-15170190D01*
X10472429Y-15103524D02*
X10462905Y-15113048D01*
X10462905Y-15113048D02*
X10472429Y-15122571D01*
X10472429Y-15122571D02*
X10481952Y-15113048D01*
X10481952Y-15113048D02*
X10472429Y-15103524D01*
X10472429Y-15103524D02*
X10472429Y-15122571D01*
X10596238Y-15303524D02*
X10577190Y-15294000D01*
X10577190Y-15294000D02*
X10567667Y-15274952D01*
X10567667Y-15274952D02*
X10567667Y-15103524D01*
X10701000Y-15303524D02*
X10681952Y-15294000D01*
X10681952Y-15294000D02*
X10672429Y-15274952D01*
X10672429Y-15274952D02*
X10672429Y-15103524D01*
X10929571Y-15303524D02*
X10929571Y-15103524D01*
X10929571Y-15103524D02*
X10996238Y-15246381D01*
X10996238Y-15246381D02*
X11062905Y-15103524D01*
X11062905Y-15103524D02*
X11062905Y-15303524D01*
X11243857Y-15303524D02*
X11243857Y-15198762D01*
X11243857Y-15198762D02*
X11234333Y-15179714D01*
X11234333Y-15179714D02*
X11215286Y-15170190D01*
X11215286Y-15170190D02*
X11177190Y-15170190D01*
X11177190Y-15170190D02*
X11158143Y-15179714D01*
X11243857Y-15294000D02*
X11224809Y-15303524D01*
X11224809Y-15303524D02*
X11177190Y-15303524D01*
X11177190Y-15303524D02*
X11158143Y-15294000D01*
X11158143Y-15294000D02*
X11148619Y-15274952D01*
X11148619Y-15274952D02*
X11148619Y-15255905D01*
X11148619Y-15255905D02*
X11158143Y-15236857D01*
X11158143Y-15236857D02*
X11177190Y-15227333D01*
X11177190Y-15227333D02*
X11224809Y-15227333D01*
X11224809Y-15227333D02*
X11243857Y-15217809D01*
X11339095Y-15170190D02*
X11339095Y-15370190D01*
X11339095Y-15179714D02*
X11358143Y-15170190D01*
X11358143Y-15170190D02*
X11396238Y-15170190D01*
X11396238Y-15170190D02*
X11415286Y-15179714D01*
X11415286Y-15179714D02*
X11424809Y-15189238D01*
X11424809Y-15189238D02*
X11434333Y-15208286D01*
X11434333Y-15208286D02*
X11434333Y-15265428D01*
X11434333Y-15265428D02*
X11424809Y-15284476D01*
X11424809Y-15284476D02*
X11415286Y-15294000D01*
X11415286Y-15294000D02*
X11396238Y-15303524D01*
X11396238Y-15303524D02*
X11358143Y-15303524D01*
X11358143Y-15303524D02*
X11339095Y-15294000D01*
X11520048Y-15284476D02*
X11529571Y-15294000D01*
X11529571Y-15294000D02*
X11520048Y-15303524D01*
X11520048Y-15303524D02*
X11510524Y-15294000D01*
X11510524Y-15294000D02*
X11520048Y-15284476D01*
X11520048Y-15284476D02*
X11520048Y-15303524D01*
X11520048Y-15179714D02*
X11529571Y-15189238D01*
X11529571Y-15189238D02*
X11520048Y-15198762D01*
X11520048Y-15198762D02*
X11510524Y-15189238D01*
X11510524Y-15189238D02*
X11520048Y-15179714D01*
X11520048Y-15179714D02*
X11520048Y-15198762D01*
M02*
